<svg xmlns="http://www.w3.org/2000/svg" fill="none" viewBox="0 0 89 89" height="89" width="89">
<path fill="#EDA751" d="M10.987 74.7809C10.793 74.7809 10.596 74.757 10.3994 74.7072C9.12371 74.3838 8.35174 73.0872 8.67524 71.8117C9.34726 69.1613 11.1904 66.8227 13.7317 65.3952C15.879 64.1888 19.4896 63.0746 24.4971 64.6183C28.5721 65.8732 30.3766 63.6552 33.7533 58.9223L33.8774 58.7485C34.642 57.6772 36.1302 57.429 37.2015 58.1933C38.2726 58.958 38.5212 60.4461 37.7567 61.5172L37.6329 61.6906C35.9306 64.0765 34.3227 66.3298 32.1594 67.8811C29.4778 69.804 26.5123 70.2269 23.0934 69.173C19.7015 68.1279 17.3995 68.8015 16.0655 69.5507C14.6572 70.3418 13.6472 71.5928 13.2947 72.9833C13.0215 74.0621 12.0515 74.7809 10.987 74.7809Z"></path>
<path fill="#FCD79D" d="M9.36916 69.9394C9.0733 70.5394 8.83898 71.1661 8.67524 71.8117C8.35174 73.0874 9.12371 74.3838 10.3994 74.7072C10.596 74.757 10.793 74.7809 10.987 74.7809C12.0515 74.7809 13.0215 74.0621 13.2951 72.9831C13.4067 72.5426 13.5848 72.1162 13.8202 71.714C12.6151 70.6067 10.8361 70.0692 9.36916 69.9394Z"></path>
<path fill="#EDA751" d="M51.2234 84.5299C51.1485 84.5299 51.0734 84.5276 50.9978 84.5231C48.8955 84.4004 47.2909 82.5967 47.4136 80.4948C47.7753 74.2959 47.6742 70.8807 47.0527 68.3133C46.5573 66.2668 47.8148 64.2061 49.8614 63.7107C51.9069 63.2146 53.9687 64.4727 54.4641 66.5194C55.4027 70.3968 55.3676 75.0881 55.0259 80.9391C54.9078 82.9656 53.2273 84.5299 51.2234 84.5299Z"></path>
<path fill="#EDA751" d="M37.7773 84.5299C35.7732 84.5299 34.0928 82.9656 33.9746 80.9391C33.6331 75.0882 33.5979 70.3968 34.5363 66.5194C35.0315 64.4729 37.0921 63.2149 39.1391 63.7107C41.1857 64.2061 42.4434 66.2666 41.948 68.3133C41.3265 70.8807 41.2254 74.2959 41.5871 80.4948C41.7098 82.5969 40.1052 84.4006 38.0031 84.5231C37.9275 84.5276 37.852 84.5299 37.7773 84.5299Z"></path>
<path fill="#EDA751" d="M66.3394 60.2303C61.851 60.2303 57.9442 58.8311 56.8114 58.384C54.8527 57.6109 53.8918 55.3965 54.6646 53.4378C55.4376 51.4792 57.6517 50.5185 59.6109 51.291C62.2456 52.3307 68.0956 53.6505 71.3784 51.202C73.0664 49.9426 75.4552 50.2904 76.7142 51.9781C77.9734 53.666 77.6259 56.0549 75.9381 57.314C72.963 59.5336 69.5063 60.2303 66.3394 60.2303Z"></path>
<path fill="#EDA751" d="M22.6608 60.2304C19.4934 60.2304 16.0376 59.5339 13.062 57.3141C11.3741 56.055 11.0266 53.6661 12.2858 51.9782C13.545 50.2904 15.934 49.9429 17.6217 51.2021C19.057 52.2727 23.3635 53.6692 29.3891 51.2911C31.3478 50.5179 33.5624 51.4792 34.3354 53.4379C35.1084 55.3966 34.1473 57.611 32.1886 58.3842C31.056 58.8312 27.1485 60.2304 22.6608 60.2304Z"></path>
<path fill="#A35F00" d="M29.3889 51.2909C27.2245 52.1451 25.2837 52.5106 23.6164 52.5808C23.3855 53.7538 23.2637 54.9623 23.2637 56.1972C23.2637 57.5697 23.413 58.9103 23.6967 60.2049C27.7394 60.0172 31.1438 58.7961 32.1884 58.3839C34.147 57.6107 35.1081 55.3963 34.3351 53.4376C33.5621 51.4789 31.3475 50.5177 29.3889 51.2909Z" opacity="0.2"></path>
<path fill="#A35F00" d="M37.2019 58.1931C36.1308 57.4288 34.6426 57.677 33.8778 58.7483L33.7537 58.9221C30.6298 63.3005 28.8502 65.5241 25.375 64.8398C26.2528 66.5372 27.3808 68.0999 28.7135 69.485C29.9171 69.1989 31.0628 68.6676 32.1599 67.8809C34.3231 66.3297 35.9311 64.0763 37.6334 61.6904L37.7571 61.5171C38.5216 60.4461 38.273 58.9578 37.2019 58.1931Z" opacity="0.2"></path>
<path fill="#A35F00" d="M39.1385 63.7104C37.0915 63.2147 35.0311 64.4727 34.5357 66.5191C34.0438 68.5515 33.8211 70.8103 33.7681 73.3396C36.0695 74.5994 38.6464 75.4598 41.3913 75.8214C41.3251 72.4154 41.5032 70.1475 41.9472 68.313C42.4428 66.2664 41.1851 64.206 39.1385 63.7104Z" opacity="0.2"></path>
<path fill="#A35F00" d="M55.2277 73.1479C55.1676 70.6956 54.9432 68.5003 54.4636 66.519C53.9682 64.4724 51.9064 63.2142 49.861 63.7103C47.8141 64.2057 46.5568 66.2664 47.0522 68.3129C47.4941 70.1386 47.6726 72.3942 47.609 75.7733C50.3602 75.3665 52.9365 74.4574 55.2277 73.1479Z" opacity="0.2"></path>
<path fill="#A35F00" d="M54.6647 53.4377C53.8917 55.3964 54.8528 57.6108 56.8115 58.3839C57.8265 58.7846 61.0684 59.9484 64.9597 60.1865C65.2407 58.8974 65.3885 57.5631 65.3885 56.197C65.3885 54.9463 65.2633 53.7229 65.0268 52.5358C62.9059 52.3591 60.8834 51.7929 59.6111 51.2907C57.6519 50.5184 55.4377 51.4791 54.6647 53.4377Z" opacity="0.2"></path>
<path fill="#FCD690" d="M44.4998 72.5385C54.2123 72.5385 62.0859 65.2221 62.0859 56.1969C62.0859 47.1717 54.2123 39.8553 44.4998 39.8553C34.7872 39.8553 26.9136 47.1717 26.9136 56.1969C26.9136 65.2221 34.7872 72.5385 44.4998 72.5385Z"></path>
<path fill="#C17A00" d="M41.9323 72.3642C33.8962 67.0882 36.3866 56.2746 37.7508 51.5456V41.1039C31.3884 43.5634 26.9146 49.3944 26.9146 56.1972C26.9146 64.4114 33.4373 71.2092 41.9323 72.3642Z" opacity="0.15"></path>
<path fill="#EDA751" d="M33.7977 27.862C37.2388 24.9745 39.5363 20.1273 34.6827 12.9618C29.7906 5.73977 22.507 3.92952 16.8208 4.59928C15.4189 4.76442 14.2426 5.75141 13.8365 7.10327C12.1893 12.5869 12.7075 20.074 18.9703 26.146C25.1842 32.1703 30.3566 30.7495 33.7977 27.862Z"></path>
<path fill="#FF91AB" d="M13.6077 7.94257C12.2574 13.334 13.0208 20.3781 18.9703 26.1462C24.3562 31.3678 28.9588 30.9948 32.3307 28.9228C30.0117 13.1797 19.8813 9.005 13.6077 7.94257Z"></path>
<path fill="#EDA751" d="M55.2017 27.8621C51.7606 24.9746 49.4631 20.1274 54.3168 12.9619C59.2088 5.73982 66.4924 3.9294 72.1786 4.59933C73.5806 4.76447 74.7569 5.75146 75.1629 7.10332C76.8101 12.5869 76.2919 20.074 70.0291 26.146C63.8154 32.1704 58.643 30.7495 55.2017 27.8621Z"></path>
<path fill="#FF91AB" d="M75.392 7.94257C76.7423 13.334 75.9788 20.3781 70.0294 26.1462C64.6435 31.3678 60.0409 30.9948 56.6689 28.9228C58.988 13.1797 69.1183 9.005 75.392 7.94257Z"></path>
<path fill="#FFDC9C" d="M74.4395 32.2201C74.4395 45.9093 61.0352 51.9049 44.5 51.9049C27.9648 51.9049 14.5605 45.9093 14.5605 32.2201C14.5605 18.531 27.965 7.43378 44.5 7.43378C61.0351 7.43378 74.4395 18.531 74.4395 32.2201Z"></path>
<path fill="#C17A00" d="M28.5137 11.2606C20.1288 15.653 14.5605 23.3978 14.5605 32.2201C14.5605 43.9877 24.466 50.0699 37.7504 51.5457C18.6808 40.155 21.1678 24.8332 28.5137 11.2606Z" opacity="0.15"></path>
<path fill="#495059" d="M22.1644 33.598C21.5802 33.598 21.0486 33.2026 20.9005 32.61C20.726 31.9114 21.1507 31.2037 21.8493 31.029C23.3501 30.6539 26.9266 30.3873 28.6679 30.6171C29.3816 30.7115 29.8838 31.3668 29.7894 32.0805C29.695 32.7941 29.0397 33.2973 28.3261 33.2021C26.9588 33.0213 23.6755 33.2605 22.4815 33.5588C22.3755 33.5854 22.2691 33.598 22.1644 33.598Z"></path>
<path fill="#495059" d="M23.8912 40.0211C23.4914 40.0211 23.097 39.8378 22.8413 39.4915C22.4137 38.9123 22.5367 38.096 23.1159 37.6684C24.3602 36.7499 27.5647 35.1402 29.2632 34.6893C29.9594 34.5049 30.6731 34.9189 30.8577 35.6149C31.0425 36.3108 30.6281 37.0247 29.9321 37.2095C28.5988 37.5634 25.6542 39.0355 24.6644 39.7661C24.4316 39.9382 24.1603 40.0211 23.8912 40.0211Z"></path>
<path fill="#495059" d="M66.8351 33.598C66.7303 33.598 66.6241 33.5853 66.518 33.5587C65.324 33.2603 62.0406 33.0211 60.6736 33.202C59.9599 33.295 59.3045 32.7942 59.2101 32.0805C59.1157 31.3668 59.6179 30.7114 60.3317 30.617C62.0738 30.3867 65.6494 30.6539 67.1502 31.029C67.8489 31.2037 68.2735 31.9114 68.099 32.61C67.9509 33.2026 67.4193 33.598 66.8351 33.598Z"></path>
<path fill="#495059" d="M65.1086 40.0211C64.8396 40.0211 64.5684 39.9381 64.3354 39.7661C63.3457 39.0355 60.401 37.5634 59.0678 37.2095C58.3718 37.0247 57.9573 36.3108 58.1421 35.6149C58.3269 34.9189 59.041 34.5049 59.7367 34.6893C61.4351 35.1402 64.6396 36.7499 65.8839 37.6684C66.4633 38.096 66.5862 38.9123 66.1586 39.4915C65.9029 39.8379 65.5083 40.0211 65.1086 40.0211Z"></path>
<path fill="#7694E4" d="M34.8906 26.8281C27.2119 13.8119 6.13173 17.7121 2.32542 35.3803C1.89763 37.3659 2.53227 39.4321 4.00477 40.8312C6.91013 43.5918 11.6417 42.643 13.316 39.0018C16.6243 31.8073 23.2063 24.4901 31.1463 26.7749L34.8906 26.8281Z"></path>
<path fill="#7694E4" d="M54.1089 26.8281C61.7876 13.8119 82.8677 17.7121 86.674 35.3803C87.1018 37.3659 86.4672 39.4321 84.9947 40.8312C82.0893 43.5918 77.3577 42.643 75.6834 39.0018C72.3751 31.8073 65.7931 24.4901 57.8531 26.7749L54.1089 26.8281Z"></path>
<path fill="#495059" d="M36.0086 29.0283C35.6448 29.0283 35.283 28.8768 35.0251 28.581C34.5057 27.9849 33.7558 27.6432 32.9675 27.6432C32.1793 27.6432 31.4295 27.9851 30.9101 28.581C30.4371 29.124 29.6136 29.1804 29.0708 28.7075C28.5279 28.2346 28.4714 27.4111 28.9442 26.8683C29.959 25.7036 31.4255 25.0358 32.9677 25.0358C34.5099 25.0358 35.9763 25.7036 36.9909 26.8683C37.4639 27.4111 37.4074 28.2346 36.8645 28.7075C36.6175 28.9227 36.3125 29.0283 36.0086 29.0283Z"></path>
<path fill="#495059" d="M59.0731 29.0283C58.7093 29.0283 58.3474 28.8768 58.0898 28.581C57.5704 27.9849 56.8203 27.6432 56.0322 27.6432C55.244 27.6432 54.494 27.9851 53.9746 28.581C53.5016 29.124 52.678 29.1804 52.1353 28.7075C51.5924 28.2346 51.5358 27.4111 52.0088 26.8683C53.0234 25.7036 54.4898 25.0358 56.0322 25.0358C57.5744 25.0358 59.041 25.7036 60.0556 26.8683C60.5288 27.4111 60.4719 28.2346 59.9291 28.7075C59.6821 28.9227 59.377 29.0283 59.0731 29.0283Z"></path>
<path fill="#FF91AB" d="M44.5001 37.5034C45.578 37.5034 46.8944 37.8684 48.0041 38.2641C49.2922 38.7231 50.6514 37.7087 50.5587 36.3443C50.2907 32.3981 47.6208 29.6693 44.5001 29.6693C41.3792 29.6693 38.7094 32.3981 38.4415 36.3443C38.3488 37.7085 39.708 38.723 40.9961 38.2641C42.1058 37.8684 43.4222 37.5034 44.5001 37.5034Z"></path>
<path fill="#7694E4" d="M8.34445 53.1339C8.34445 55.4381 6.47649 57.3061 4.17222 57.3061C1.86796 57.3061 0 55.4381 0 53.1339C0 48.287 3.59598 45.2099 5.37685 45.5718C7.5052 46.0045 8.34445 49.568 8.34445 53.1339Z"></path>
<path fill="#7694E4" d="M80.6553 51.7994C80.6553 54.1037 82.5232 55.9716 84.8275 55.9716C87.1317 55.9716 88.9997 54.1037 88.9997 51.7994C88.9997 46.9525 85.4037 43.8754 83.6229 44.2375C81.4945 44.67 80.6553 48.2335 80.6553 51.7994Z"></path>
</svg>
