<svg xmlns="http://www.w3.org/2000/svg" fill="none" viewBox="0 0 14 14" height="14" width="14">
<path fill="#0DE18C" d="M2.97661 7.97246H4.59104C4.67467 7.97246 4.74229 7.9047 4.74229 7.82107V6.20668C4.74229 6.12306 4.67467 6.0553 4.59104 6.0553H2.97661C2.89298 6.0553 2.82532 6.12306 2.82532 6.20668V7.82107C2.82532 7.9047 2.89298 7.97246 2.97661 7.97246Z"></path>
<path fill="#0DE18C" d="M6.19268 7.97246H7.80739C7.89069 7.97246 7.95864 7.9047 7.95864 7.82107V6.20668C7.95864 6.12306 7.89069 6.0553 7.80739 6.0553H6.19268C6.10928 6.0553 6.04138 6.12306 6.04138 6.20668V7.82107C6.04138 7.9047 6.10928 7.97246 6.19268 7.97246Z"></path>
<path fill="#0DE18C" d="M9.40897 7.97246H11.0234C11.107 7.97246 11.1746 7.9047 11.1746 7.82107V6.20668C11.1746 6.12306 11.107 6.0553 11.0234 6.0553H9.40897C9.32534 6.0553 9.25772 6.12306 9.25772 6.20668V7.82107C9.25772 7.9047 9.32534 7.97246 9.40897 7.97246Z"></path>
<path fill="#0DE18C" d="M2.97661 11.1887H4.59104C4.67467 11.1887 4.74229 11.1209 4.74229 11.0373V9.42292C4.74229 9.33929 4.67467 9.27148 4.59104 9.27148H2.97661C2.89298 9.27148 2.82532 9.33929 2.82532 9.42292V11.0373C2.82532 11.1209 2.89298 11.1887 2.97661 11.1887Z"></path>
<path fill="#0DE18C" d="M6.19268 11.1887H7.80739C7.89069 11.1887 7.95864 11.1209 7.95864 11.0373V9.42292C7.95864 9.33929 7.89069 9.27148 7.80739 9.27148H6.19268C6.10928 9.27148 6.04138 9.33929 6.04138 9.42292V11.0373C6.04138 11.1209 6.10928 11.1887 6.19268 11.1887Z"></path>
<path fill="#0DE18C" d="M9.40897 11.1887H11.0234C11.107 11.1887 11.1746 11.1209 11.1746 11.0373V9.42292C11.1746 9.33929 11.107 9.27148 11.0234 9.27148H9.40897C9.32534 9.27148 9.25772 9.33929 9.25772 9.42292V11.0373C9.25772 11.1209 9.32534 11.1887 9.40897 11.1887Z"></path>
<path fill="#0DE18C" d="M13.6217 0.264893H11.9V0.683773C11.9 1.16327 11.5114 1.55201 11.0318 1.55201H10.9016C10.422 1.55201 10.0333 1.16332 10.0333 0.683773V0.264893H7.93333V0.683773C7.93333 1.16327 7.54469 1.55201 7.0651 1.55201H6.9349C6.45535 1.55201 6.06667 1.16332 6.06667 0.683773V0.264893H3.96667V0.683773C3.96667 1.16327 3.57803 1.55201 3.09843 1.55201H2.96823C2.48864 1.55196 2.1 1.16327 2.1 0.683726V0.264893H0.37828C0.169353 0.264893 0 0.434339 0 0.643219V13.3568C0 13.5657 0.169353 13.7351 0.37828 13.7351H13.6217C13.8306 13.7351 14 13.5657 14 13.3568V0.643219C14 0.434339 13.8306 0.264893 13.6217 0.264893ZM12.8648 12.6H1.13521V4.61619H12.8648V12.6Z"></path>
</svg>
