<svg width="36" height="34" viewBox="0 0 36 34" fill="none" xmlns="http://www.w3.org/2000/svg">
<path d="M33.8867 4.54443C33.1368 4.29664 32.8868 3.80107 32.5118 3.3055C31.8869 2.56214 33.0118 -0.0395941 30.262 1.19934C30.262 1.19934 30.012 0.95152 30.012 0.703734C29.387 -0.411303 28.8871 -0.0396244 28.3871 0.703734C28.0121 1.3232 27.5121 1.81879 27.0122 2.31437C25.5123 3.67719 24.6373 5.1639 24.7623 7.14619C24.7623 8.88069 23.8874 9.62404 22.0125 9.50015C16.7628 9.37626 12.6381 12.8453 11.5132 17.9249C11.0132 20.0311 11.1382 22.1372 11.2632 24.2434C11.3882 26.4735 10.7633 28.208 8.63839 29.1991C6.76351 30.0664 5.13858 29.4469 3.76367 27.9602C3.01372 27.093 1.8888 27.093 0.888866 27.7124C-0.11107 28.3319 -0.111116 29.3231 0.138868 30.3142C0.388852 31.5531 1.38885 32.2965 2.38879 32.7921C5.13861 34.2788 8.01341 34.2788 10.8882 33.4115C11.3882 33.2876 12.0131 32.792 12.5131 33.1637C13.763 34.2788 15.2629 33.9071 16.6378 33.9071C20.7626 33.9071 24.7623 33.9071 28.887 33.9071C31.1369 33.9071 32.3869 32.6682 31.137 31.5531C29.2621 29.6947 30.137 27.5885 29.887 25.4823C29.762 24.2434 29.887 23.1284 30.887 22.1373C33.3868 19.6594 34.1367 16.686 33.1368 13.3408C32.6368 11.6063 32.6368 10.2435 34.5117 9.12848C36.7615 7.88955 36.3866 5.41168 33.8867 4.54443ZM33.7618 8.13732C30.8869 9.74793 31.2619 12.1019 31.8869 14.4559C32.6368 17.0576 32.0119 19.1638 30.262 21.0222C28.8871 22.385 28.3871 23.8717 28.5121 25.7301C28.6371 27.2169 28.6371 28.7036 28.5121 30.1903C28.5121 31.1814 28.5121 32.0487 29.887 32.5443C27.3872 32.9159 27.2621 32.792 27.0122 30.6859C26.7622 27.9602 26.3872 25.2346 25.8873 22.5089C25.6373 21.27 25.5123 20.155 26.5122 19.1638C26.8872 18.7921 26.8872 18.4204 26.3872 18.0488C25.8872 17.6771 25.6373 17.9249 25.2623 18.2966C24.6374 19.1638 24.0123 20.031 23.8874 21.1461C22.8874 20.6505 21.8875 20.4028 20.7626 20.4028C19.7626 20.4028 18.6377 20.5266 17.8878 21.27C17.5128 21.5178 16.8878 21.7656 17.2628 22.385C17.6378 22.8806 18.1378 23.0045 18.7627 22.5089C19.3877 21.8895 20.2626 21.7656 21.1376 21.8895C23.3874 22.1372 24.6373 23.2523 25.0123 25.3585C25.2623 27.2169 24.1374 29.323 22.3875 30.0664C21.8875 30.3142 21.1375 30.1903 21.3875 31.0575C21.5125 31.8009 22.2625 31.5531 22.6374 31.5531C23.7624 31.677 25.5123 31.0575 25.5123 32.5443C25.5123 33.6593 23.6374 33.0398 22.7625 33.0398C20.2626 33.1637 17.8878 33.0398 15.3879 33.0398C14.8879 33.0398 14.388 33.0398 14.013 32.5443C13.763 32.0487 14.013 31.677 14.388 31.4292C14.888 30.9337 15.2629 30.562 14.513 30.0664C13.763 29.4469 13.513 30.1903 13.1381 30.562C10.6382 33.1637 7.51341 33.7832 4.13863 32.4204C3.51367 32.1726 3.01372 31.8009 2.51375 31.4292C2.01378 31.0576 1.51378 30.4381 2.01375 29.8186C2.63871 29.0752 3.13874 29.8186 3.63871 30.1903C5.3886 31.8009 7.5134 32.0487 9.51327 31.1814C11.7631 30.1903 13.0131 28.4558 13.0131 25.854C13.0131 24.3673 13.0131 22.7567 13.0131 21.27C13.0131 15.5709 16.8878 11.6063 22.6374 11.6063C25.0123 11.6063 25.8872 10.9869 26.3872 8.63292C26.5122 8.01345 26.5122 7.51785 26.5122 6.89839C26.5122 5.28778 27.5735 3.99843 29.0121 3.6772C31.4882 3.12429 31.1369 4.29664 31.8869 5.16389C32.2619 5.65946 32.5119 6.27894 33.3868 6.52672C34.6367 6.27894 35.0117 7.39396 33.7618 8.13732Z" fill="white"/>
</svg>
