<svg width="43" height="34" viewBox="0 0 43 34" fill="none" xmlns="http://www.w3.org/2000/svg">
<path d="M40.3417 2.68404C39.002 2.68404 38.1495 2.0657 37.297 1.20005C34.8613 -1.27324 29.0154 0.334395 28.0411 3.67334C28.0411 3.797 27.9193 4.04433 27.9193 4.29166C28.6501 6.2703 27.3104 7.50694 26.3361 8.61992C23.535 11.9589 20.2467 14.5558 16.5931 16.9055C13.0612 19.2551 10.6255 22.3467 10.2601 26.9223C10.0165 29.1483 7.94617 29.0246 6.48472 29.3956C5.02326 29.7666 4.41433 28.7773 4.04896 27.5406C3.6836 26.4276 3.07463 25.4383 1.73496 25.8093C0.517085 26.0567 0.0299043 27.046 0.0299043 28.2826C-0.0918835 29.5193 0.151707 30.6322 0.882434 31.4979C2.58746 33.7238 4.90142 34.0949 7.33717 33.7239C9.16399 33.4765 10.7472 33.2292 12.8176 33.6002C16.4713 34.3422 20.2467 33.8475 24.0221 33.7239C24.7528 33.7239 25.24 33.3528 25.4836 32.7345C25.7272 31.9925 25.3618 31.3742 24.8746 30.8796C24.1439 30.1376 23.1696 30.0139 22.1953 29.6429C22.926 28.4063 23.535 27.417 24.7529 26.675C25.849 26.0566 26.3361 25.933 26.4579 27.417C26.5797 28.9009 26.9451 30.3849 27.1886 31.7452C27.4322 33.1055 28.2847 33.7239 29.5026 33.7239C30.2333 33.7239 30.8423 33.7239 31.573 33.7239C32.3037 33.7239 33.1562 33.7238 33.5216 32.8582C33.8869 31.9925 33.6433 31.0032 32.9126 30.6322C31.0858 29.5193 31.4512 27.788 31.4512 26.1803C31.4512 24.5727 31.3294 22.8414 32.7909 21.6047C35.8356 18.8841 37.297 15.4215 36.6881 11.3406C36.4445 9.23826 37.5406 8.12529 39.4892 7.75429C40.7071 7.50696 41.5595 6.76496 42.0467 5.65198C43.021 3.79701 42.4121 2.56037 40.3417 2.68404ZM40.5853 5.40467C40.2199 6.023 39.611 6.27031 38.8802 6.39398C36.6881 6.88863 35.1048 8.74362 35.3484 10.9696C35.7137 15.0505 34.4959 18.1421 31.6947 20.9864C29.0154 23.5833 30.2333 27.046 30.4769 30.1376C30.4769 31.1269 31.8166 31.2505 32.1819 32.1162C29.5026 32.9818 28.8936 32.7345 28.5283 30.0139C28.2847 28.4063 28.1629 26.675 27.7976 25.0673C27.3104 23.2124 27.4322 21.3574 28.4065 19.6261C28.6501 19.1314 29.0154 18.6368 28.1629 18.2658C27.3104 18.0185 27.3104 18.5131 27.1886 19.0078C26.7015 20.4918 25.7271 21.7284 26.2143 23.4597C26.5796 24.82 25.24 24.82 24.5093 25.4383C23.6568 26.1803 23.535 25.191 23.1696 24.82C21.9517 23.4597 20.3685 23.0887 18.7853 22.8414C18.2981 22.7177 18.0546 22.965 18.0546 23.4597C18.0546 23.8307 18.0545 24.2017 18.5417 24.3253C19.1506 24.449 19.7595 24.5727 20.3685 24.82C21.221 25.191 22.1953 25.4383 22.3171 26.675C22.4389 27.9116 21.5863 28.5299 20.7338 29.1483C20.1249 29.6429 18.5417 29.2719 18.907 30.6322C19.1506 31.6216 20.4903 31.1269 21.221 31.2506C22.3171 31.4979 23.2914 31.4979 24.6311 32.6109C20.7338 32.6109 17.3238 32.6109 13.9137 32.6109C13.183 32.6109 12.5741 32.3635 13.0612 31.4979C13.3048 31.1269 13.4266 30.7559 12.8176 30.3849C12.3305 30.1376 12.0869 30.2612 11.7216 30.6322C10.1383 32.3635 5.87576 33.1055 3.80537 31.9926C2.34392 31.2506 1.36957 29.5193 1.85672 28.159C1.97851 27.9116 1.97854 27.5406 2.3439 27.417C2.83105 27.2933 2.83105 27.788 2.95284 28.0353C3.43999 29.3956 3.92716 30.7559 5.63219 31.0032C7.70258 31.2506 9.6512 30.5086 11.3562 29.2719C11.9652 28.9009 11.9651 28.2826 12.0869 27.5406C12.3305 23.8307 14.0355 20.8627 17.0802 18.8841C21.5863 15.7925 26.0925 12.5772 29.1372 7.87797C29.5026 7.38331 29.7461 7.38331 30.1115 7.87797C30.4769 8.24896 30.8422 8.74361 31.3294 8.99094C32.7908 9.98026 34.4959 9.23825 34.7394 7.38328C34.8612 6.39396 34.7394 5.28098 34.7394 4.29166C34.7394 3.797 34.6177 3.42603 34.0087 3.42603C33.3998 3.42603 33.278 3.67334 33.278 4.29166C33.278 5.15731 33.278 6.02297 33.278 6.76495C33.278 7.87794 32.7908 8.24894 31.9383 7.50695C31.0858 6.88863 30.4769 6.02298 29.9898 5.15733C29.7462 4.78634 29.6243 4.53901 29.8679 4.04436C30.8422 1.69473 35.1048 0.705397 36.8098 2.56037C37.7841 3.54968 38.6366 4.41536 40.2199 4.16803C40.5852 4.16803 41.0725 3.92068 41.1942 4.41533C41.0725 4.66266 40.7071 5.03368 40.5853 5.40467Z" fill="#F8F8F8"/>
</svg>
