<svg width="141" height="126" viewBox="0 0 141 126" fill="none" xmlns="http://www.w3.org/2000/svg">
<g opacity="0.1">
<path d="M102.516 47.5189C102.026 46.4889 100.794 46.0516 99.7646 46.5401C98.7346 47.0295 98.2965 48.2613 98.7861 49.2913C99.1474 50.0508 99.33 50.8668 99.33 51.7167V56.1301C99.33 59.2505 96.7912 61.7891 93.6713 61.7891C90.5508 61.7891 88.0123 59.2502 88.0123 56.1301V51.7167C88.0123 48.5962 90.5511 46.0577 93.6713 46.0577C94.8114 46.0577 95.7359 45.1332 95.7359 43.9931C95.7359 42.853 94.8114 41.9285 93.6713 41.9285C88.2739 41.9285 83.8828 46.3196 83.8828 51.7169V56.1303C83.8828 61.5277 88.2739 65.9188 93.6713 65.9188C99.0687 65.9188 103.459 61.5277 103.459 56.1303V51.7169C103.459 50.2491 103.142 48.8369 102.516 47.5189Z" fill="#0DE18C"/>
<path d="M56.1739 47.5189C55.6846 46.4889 54.4527 46.0516 53.4228 46.5401C52.3928 47.0295 51.9547 48.2613 52.4443 49.2913C52.8056 50.0508 52.9882 50.8668 52.9882 51.7167V56.1301C52.9882 59.2505 50.4494 61.7891 47.3292 61.7891C44.209 61.7891 41.6705 59.2502 41.6705 56.1301V51.7167C41.6705 48.5962 44.2093 46.0577 47.3292 46.0577C48.4696 46.0577 49.3938 45.1332 49.3938 43.9931C49.3938 42.853 48.4693 41.9285 47.3292 41.9285C41.9318 41.9285 37.541 46.3196 37.541 51.7169V56.1303C37.541 61.5277 41.9318 65.9188 47.3292 65.9188C52.7266 65.9188 57.1177 61.5277 57.1177 56.1303V51.7169C57.1174 50.2491 56.7999 48.8369 56.1739 47.5189Z" fill="#0DE18C"/>
<path d="M140.928 32.5266C140.858 32.1994 139.163 24.4271 134.937 16.5369C129.141 5.7182 121.358 0 112.428 0C105.702 0 97.2038 4.06861 96.1581 4.58222C92.6676 5.95036 90.6806 5.41693 87.0939 4.44975C83.5844 3.50324 78.7774 2.20698 70.5 2.20698C62.2226 2.20698 57.416 3.50324 53.9061 4.44975C50.3197 5.4172 48.3328 5.95063 44.8419 4.58222C43.7963 4.06889 35.2983 0 28.5716 0C19.6423 0 11.859 5.7182 6.06339 16.5369C1.8367 24.4271 0.141953 32.1997 0.0717285 32.5266C-0.0563279 33.1239 -0.0384276 33.7353 0.33748 34.2172C0.699618 34.6815 1.12592 34.9572 1.70314 34.9955C2.14459 35.185 5.20087 36.8607 4.99157 46.7076C4.77925 56.6761 6.18952 63.5727 7.41033 67.6025C8.08311 69.8241 9.84147 71.4778 12.1137 72.0258C12.6276 72.15 13.1437 72.2106 13.6529 72.2106C15.3518 72.2106 16.9749 71.5351 18.1855 70.2804C18.2615 70.2016 18.3334 70.1196 18.4083 70.04C21.2379 83.5057 30.2694 94.3041 38.6886 98.6048C39.6447 100.585 41.1803 102.387 43.2325 103.892C43.7613 104.28 44.3187 104.638 44.8959 104.972C46.7016 110.112 51.399 116.427 59.3335 119.239C61.6396 122.992 65.782 125.501 70.5006 125.501C75.2191 125.501 79.3618 122.992 81.6679 119.239C89.6071 116.428 94.2783 110.168 96.1064 104.971C96.683 104.637 97.2401 104.28 97.7686 103.892C99.8208 102.387 101.356 100.585 102.313 98.6048C110.732 94.3041 119.763 83.5057 122.593 70.04C122.668 70.1196 122.739 70.2016 122.815 70.2804C124.026 71.5351 125.649 72.2106 127.348 72.2106C127.857 72.2106 128.374 72.15 128.887 72.0258C131.159 71.4775 132.918 69.8238 133.591 67.6025C134.811 63.5724 136.221 56.6761 136.009 46.7076C135.8 36.8604 138.856 35.1847 139.298 34.9955C139.875 34.9572 140.301 34.6815 140.663 34.2172C141.038 33.7356 141.056 33.1242 140.928 32.5266ZM15.2143 67.413C14.4275 68.2279 13.4609 68.1032 13.0823 68.0117C12.2489 67.8107 11.6062 67.2104 11.3625 66.4057C10.2287 62.6623 8.91947 56.2215 9.12022 46.7954C9.32539 37.1532 6.55166 33.3522 4.49119 31.8618C6.10388 25.841 13.0029 4.12948 28.5719 4.12948C31.8264 4.12948 35.7606 5.33293 38.7139 6.45101C27.6218 12.5407 25.9557 26.0136 24.3383 39.0916C23.0227 49.7305 21.6626 60.7315 15.2143 67.413ZM50.5386 107.192C52.3339 107.621 54.2231 107.847 56.156 107.847C56.5735 107.847 56.9885 107.832 57.4014 107.812V112.402C57.4014 112.899 57.4317 113.389 57.4859 113.871C54.385 112.096 52.0858 109.655 50.5386 107.192ZM79.4692 112.402C79.4692 117.348 75.4455 121.371 70.5 121.371C65.5546 121.371 61.5308 117.348 61.5308 112.402V107.25C64.0664 106.673 66.4163 105.684 68.4354 104.331V110.195C68.4354 111.336 69.3599 112.26 70.5 112.26C71.6401 112.26 72.5646 111.336 72.5646 110.195V104.331C74.5835 105.684 76.9337 106.673 79.4692 107.25V112.402ZM83.5133 113.877C83.5678 113.392 83.5987 112.901 83.5987 112.402V107.812C84.0115 107.833 84.4265 107.847 84.844 107.847C86.7794 107.847 88.6711 107.62 90.4683 107.19C88.9212 109.665 86.6241 112.103 83.5133 113.877ZM131.88 46.7954C132.081 56.2212 130.771 62.6623 129.638 66.4057C129.394 67.2104 128.751 67.8107 127.918 68.0117C127.539 68.1029 126.573 68.2279 125.786 67.413C119.338 60.7315 117.978 49.7305 116.662 39.0916C115.785 31.999 114.878 24.665 112.45 18.5968C112.026 17.5382 110.825 17.0235 109.766 17.4473C108.707 17.8709 108.192 19.0727 108.616 20.1313C110.846 25.7027 111.681 32.4525 112.564 39.5984C113.693 48.7256 114.855 58.1021 119.151 65.4154C118.262 73.6765 114.836 80.0881 112.089 84.0381C109.566 87.6652 106.532 90.7862 103.439 92.9913C103.226 89.325 101.233 85.9388 97.7686 83.3981C94.4581 80.9702 90.1389 79.5839 85.5416 79.4561C84.2279 74.3628 78.0942 70.6167 70.5006 70.6167C62.907 70.6167 56.7729 74.3631 55.4596 79.4564C54.4775 79.4839 53.4994 79.5666 52.5426 79.7089C51.4146 79.8769 50.6367 80.927 50.8044 82.055C50.957 83.08 51.8382 83.8161 52.8439 83.8161C52.945 83.8161 53.0474 83.8087 53.1504 83.7932C53.9116 83.6798 54.6904 83.6112 55.4734 83.5853C56.7454 88.1843 62.1207 90.6342 65.8335 92.3254L65.9847 92.3942C67.4201 93.0483 68.9603 93.3754 70.5011 93.3754C72.0414 93.3754 73.5825 93.0483 75.0173 92.3942L75.1684 92.3254C78.8812 90.6337 84.2569 88.1843 85.5286 83.5848C93.1999 83.834 99.3312 88.2507 99.3312 93.6453C99.3312 99.1994 92.8328 103.718 84.8451 103.718C80.8357 103.718 77.0975 102.582 74.3197 100.518C72.0714 98.8483 68.9311 98.8486 66.6828 100.518C63.9047 102.581 60.1668 103.718 56.1574 103.718C48.17 103.718 41.6713 99.1994 41.6713 93.6453C41.6713 91.2191 42.9599 88.864 45.2999 87.0139C46.1944 86.3067 46.3461 85.0083 45.6389 84.1138C44.9317 83.2193 43.6335 83.0679 42.7388 83.7748C39.585 86.2687 37.766 89.52 37.5622 92.991C34.4693 90.7859 31.4354 87.6652 28.9128 84.0383C26.1658 80.0884 22.7396 73.6768 21.8507 65.4156C26.1468 58.1026 27.3086 48.7262 28.4372 39.5989C29.3361 32.3314 30.1848 25.467 32.5017 19.846C34.8987 14.0306 38.5583 10.4654 43.9747 8.66488C48.3735 10.2175 51.3128 9.42688 54.9826 8.43685C58.4523 7.50108 62.7709 6.33645 70.5011 6.33645C78.2313 6.33645 82.5497 7.5008 86.0196 8.43685C88.1966 9.02399 90.1158 9.54172 92.2355 9.54172C93.6884 9.54172 95.2367 9.2969 97.0253 8.66598C99.9547 9.63893 102.35 11.1114 104.317 13.1681C105.105 13.992 106.412 14.0215 107.236 13.2333C108.06 12.4452 108.089 11.1384 107.301 10.3142C105.841 8.7877 104.16 7.4986 102.273 6.4568C105.228 5.33734 109.17 4.12975 112.43 4.12975C127.971 4.12975 134.89 25.8429 136.509 31.8632C134.447 33.3539 131.675 37.1548 131.88 46.7954ZM81.6762 81.5078C81.6762 84.8224 76.9249 86.9869 73.4555 88.5674L73.3038 88.6365C71.522 89.4489 69.4783 89.4489 67.6965 88.6365L67.5448 88.5674C64.0757 86.9869 59.3241 84.8224 59.3241 81.5078C59.3241 77.8423 64.442 74.7456 70.5 74.7456C76.5581 74.7456 81.6762 77.8423 81.6762 81.5078Z" fill="#0DE18C"/>
</g>
</svg>
