<svg xmlns="http://www.w3.org/2000/svg" fill="none" viewBox="0 0 24 24" height="24" width="24">
<path fill="white" d="M8.55287 7.2881L10.875 4.96596V17.25C10.875 17.5483 10.9935 17.8345 11.2045 18.0455C11.4155 18.2565 11.7016 18.375 12 18.375C12.2984 18.375 12.5845 18.2565 12.7955 18.0455C13.0065 17.8345 13.125 17.5483 13.125 17.25V4.96596L15.4471 7.2881C15.5515 7.39304 15.6755 7.47635 15.8122 7.53326C15.9488 7.59017 16.0953 7.61957 16.2433 7.61977C16.3913 7.61998 16.5378 7.59097 16.6746 7.53443C16.8114 7.47789 16.9356 7.39492 17.0403 7.29027C17.1449 7.18562 17.2279 7.06136 17.2845 6.92459C17.341 6.78782 17.37 6.64124 17.3698 6.49325C17.3696 6.34525 17.3402 6.19875 17.2833 6.06214C17.2264 5.92553 17.1431 5.80148 17.0381 5.69712L12.7955 1.45446C12.6911 1.34999 12.567 1.26712 12.4305 1.21058C12.294 1.15404 12.1477 1.12494 12 1.12494C11.8523 1.12494 11.706 1.15404 11.5695 1.21058C11.433 1.26712 11.309 1.34999 11.2045 1.45446L6.96189 5.69712C6.85696 5.80148 6.77365 5.92553 6.71673 6.06214C6.65982 6.19875 6.63042 6.34525 6.63022 6.49325C6.63002 6.64124 6.65902 6.78782 6.71556 6.92459C6.7721 7.06136 6.85508 7.18562 6.95972 7.29027C7.06437 7.39492 7.18864 7.47789 7.32541 7.53443C7.46217 7.59097 7.60875 7.61998 7.75675 7.61977C7.90474 7.61957 8.05124 7.59017 8.18785 7.53326C8.32447 7.47635 8.44851 7.39304 8.55287 7.2881Z"></path>
<path fill="white" d="M21.75 10.875C21.4516 10.875 21.1655 10.9935 20.9545 11.2045C20.7435 11.4155 20.625 11.7016 20.625 12V20.625H3.375V12C3.375 11.7016 3.25647 11.4155 3.0455 11.2045C2.83452 10.9935 2.54837 10.875 2.25 10.875C1.95163 10.875 1.66548 10.9935 1.4545 11.2045C1.24353 11.4155 1.125 11.7016 1.125 12V21C1.125 21.4973 1.32254 21.9742 1.67417 22.3258C2.02581 22.6775 2.50272 22.875 3 22.875H21C21.4973 22.875 21.9742 22.6775 22.3258 22.3258C22.6775 21.9742 22.875 21.4973 22.875 21V12C22.875 11.7016 22.7565 11.4155 22.5455 11.2045C22.3345 10.9935 22.0484 10.875 21.75 10.875Z"></path>
</svg>
