<svg width="44" height="44" viewBox="0 0 44 44" fill="none" xmlns="http://www.w3.org/2000/svg">
<path d="M9.39878 19.137C5.31905 23.2167 5.29468 29.8304 9.34437 33.8801C13.4051 37.9408 20.0824 37.9397 24.142 33.8801C27.9179 30.1042 28.1513 24.0995 24.8587 19.9979L29.7999 15.0567L32.248 17.5049C32.6987 17.9556 33.4294 17.9556 33.8801 17.5049C34.3307 17.0542 34.3307 16.3235 33.8801 15.8728L31.4319 13.4247L33.8801 10.9765C34.3307 10.5259 34.3307 9.79512 33.8801 9.34445C33.4294 8.89377 32.6987 8.89377 32.248 9.34445L29.7999 11.7926L27.3517 9.34445C26.901 8.89377 26.1703 8.89377 25.7196 9.34445C25.269 9.79512 25.269 10.5259 25.7196 10.9765L28.1678 13.4247L23.2259 18.3665C19.1516 15.1067 13.1726 15.3631 9.39878 19.137ZM22.5099 32.2481C19.3301 35.4278 14.1562 35.4278 10.9765 32.2481C7.8267 29.0983 7.85107 23.9488 11.0309 20.769C14.1806 17.6193 19.3057 17.6193 22.4555 20.769C25.6352 23.9488 25.6596 29.0983 22.5099 32.2481Z" fill="#0DE18C"/>
</svg>