<svg width="42" height="35" viewBox="0 0 42 35" fill="none" xmlns="http://www.w3.org/2000/svg">
<path d="M40.1857 15.0536C38.0917 12.8364 35.6283 11.3583 32.6721 10.4961C30.5781 9.88021 29.839 8.6485 29.7158 6.67771C29.5927 4.70692 28.9768 2.85928 27.7451 1.38118C27.1292 0.642136 26.5134 0.518954 25.6512 1.258C23.3109 3.59832 20.4777 5.07641 17.5215 6.18498C16.413 6.67768 15.3044 7.0472 14.4422 8.0326C12.8409 9.63387 13.2106 11.112 15.1813 11.851C15.4277 11.9742 15.7972 12.0974 16.0435 12.3437C16.5362 12.7132 17.152 13.0828 16.9057 13.6986C16.6593 14.1913 16.1667 14.684 15.4276 14.684C10.5007 14.5609 5.57371 14.5609 1.7553 10.8656C1.38577 10.4961 1.1394 10.2498 0.646698 10.3729C0.0308256 10.6193 0.15397 11.2351 0.15397 11.7278C0.15397 15.5462 1.50895 18.6256 5.45053 20.2269C2.61752 22.6904 1.38581 25.5234 1.63215 29.0954C1.75533 30.4504 1.50892 31.9285 0.646698 33.1602C-0.338698 34.5151 0.277235 34.7615 1.63215 34.7615C5.69691 34.6383 8.77618 32.9139 10.6238 29.2186C11.486 27.4942 11.9787 25.6466 12.5946 23.799C12.9641 22.5672 13.3336 21.2123 14.319 20.2269C14.8117 19.611 15.5507 18.9951 16.2898 19.4878C17.3984 20.2269 18.2606 21.0891 19.246 21.8282C19.246 21.8282 19.1229 22.0745 18.9997 22.0745C16.6594 25.2771 18.2607 27.8637 20.1083 30.4504C21.2169 32.0516 22.3253 32.0517 23.6803 30.6967C24.912 29.465 25.6511 27.8637 26.5133 26.3856C27.1292 25.2771 27.8682 24.9075 29.1 25.0307C33.5343 25.1539 37.2295 23.4294 40.1857 20.2269C42.0333 18.3793 41.9101 16.778 40.1857 15.0536ZM14.5655 18.0097C12.4715 19.1183 11.8555 21.2123 11.2397 23.1831C10.6238 25.0307 10.1312 27.0015 9.14577 28.7259C7.79085 31.3126 5.69682 32.6675 2.61746 33.037C2.49429 31.9285 3.11013 31.4358 3.97235 31.0662C5.94314 30.0808 7.42123 28.7259 8.89933 27.1246C9.14568 26.7551 9.76164 26.5088 9.14577 25.8929C8.52989 25.277 8.1604 25.7697 7.79088 26.1393C6.43596 27.4942 5.20415 28.9723 3.11019 29.7113C3.60289 27.4942 5.08095 26.5088 6.31269 25.4002C6.92857 24.7843 7.79085 24.2917 8.52989 23.9221C9.14577 23.5526 9.26885 23.1831 8.89933 22.6904C8.5298 22.0745 8.1604 22.444 7.79088 22.6904C6.18961 23.5526 4.8346 24.6612 3.23333 26.2624C4.3419 23.1831 5.69682 21.0891 8.77618 20.7196C9.26888 20.7196 9.76164 20.5964 9.76164 19.9805C9.76164 19.2415 9.14574 19.3647 8.65304 19.2415C4.9578 18.6256 4.71152 18.5024 2.8639 16.4085C5.69691 17.6402 8.03717 18.2561 10.5007 18.5024C10.9934 18.5024 11.8556 18.9951 12.102 18.0097C12.2252 16.778 11.2397 17.1475 10.6238 17.1475C8.03714 16.9012 5.4505 16.2853 3.11019 14.9304C2.61749 14.5609 1.75527 14.4377 1.87844 13.3291C5.57368 15.9158 9.76167 16.2853 13.9496 16.5317C14.3191 16.5317 14.9349 16.2853 14.9349 17.0244C14.9349 17.0244 15.1813 17.6402 14.5655 18.0097ZM25.6512 3.2288C26.3902 2.48975 26.8829 2.48977 27.4988 3.47516C28.361 5.19961 28.1147 7.17039 28.7305 8.89483C28.8537 9.14118 28.8536 9.38753 28.4841 9.51071C27.8682 9.63388 27.3756 9.38753 27.0061 8.89483C26.1438 7.66309 26.0206 5.93865 25.4047 4.58373C25.0352 3.96785 25.2817 3.59832 25.6512 3.2288ZM23.3108 4.95324C23.9267 4.83006 24.0498 5.07644 24.173 5.44596C24.6657 6.67771 25.0352 7.90945 25.5279 9.1412C25.6511 9.6339 25.2815 9.75704 24.912 9.88021C24.4193 10.0034 23.8035 10.3729 23.434 9.63389C22.9413 8.52532 22.2023 7.53991 21.9559 6.43134C21.5864 5.32277 23.0645 5.56911 23.3108 4.95324ZM18.7533 7.41672C19.246 7.17038 19.8619 6.55453 20.4778 7.1704C21.4632 8.03262 21.5864 9.38752 22.2022 10.4961C22.2022 11.112 21.8327 11.112 21.4632 11.2351C20.9705 11.4815 20.8473 11.2352 20.6009 10.8656C20.2314 10.0034 19.7387 9.14119 19.1229 8.40214C18.7533 8.15579 18.1374 7.78625 18.7533 7.41672ZM16.0435 10.4961C15.674 10.3729 14.8118 10.3729 15.1813 9.51071C15.4277 8.89483 15.7971 8.27897 16.7825 8.40214C17.6447 8.52532 19.4925 10.8656 19.4925 11.7278C19.4925 12.0974 19.3692 12.2205 19.1229 12.3437C18.6302 12.5901 18.5071 12.3437 18.2607 12.0974C17.5217 11.3583 16.7826 10.9888 16.0435 10.4961ZM23.8036 28.1101C23.3109 28.8491 22.9412 29.7113 21.8326 29.9577C21.7095 28.6028 22.4485 27.7405 23.0644 26.8783C23.4339 26.3856 23.5571 26.0161 23.0644 25.6466C22.3253 25.0307 22.2023 25.7697 21.9559 26.0161C21.4632 26.632 21.0936 27.2478 20.6009 27.9869C19.4923 27.1247 20.3546 26.5088 20.8473 25.8929C21.2169 25.277 22.4486 25.0307 21.5864 24.1685C20.7241 23.3062 20.4778 24.6612 19.6156 24.7843C19.8619 22.5672 20.4778 22.1977 22.3254 23.0599C23.5571 23.5526 24.6657 24.0453 25.8975 24.6612C25.1584 25.7697 24.5426 27.0015 23.8036 28.1101ZM39.0771 19.3647C36.8599 21.5818 32.9184 23.4294 29.1 23.4294C25.1584 22.9367 20.9705 21.0891 17.3984 18.1329C16.2898 17.1475 16.5361 16.4085 17.5215 15.4231C23.5571 9.63387 33.288 9.88024 39.2004 15.7926C40.1858 17.0244 40.3088 18.1329 39.0771 19.3647Z" fill="white"/>
<path d="M31.6747 18.3515C31.6747 16.9811 32.4222 15.7352 33.4189 14.4894C33.6681 14.1156 34.0418 13.7418 34.5401 14.2402C34.9139 14.6139 35.0386 14.8631 34.6648 15.3615C34.1665 15.8598 33.7927 16.4827 33.5435 17.1057C33.1697 18.2269 32.5468 19.4728 34.1664 20.2203C34.6648 20.4695 34.6647 20.9679 34.5401 21.3416C34.2909 21.9646 33.7927 21.5908 33.4189 21.4662C32.0485 21.0924 31.5501 20.0957 31.6747 18.3515Z" fill="white"/>
<path d="M38.7761 17.4794C38.6515 18.2269 38.1532 18.6007 37.4057 18.6007C36.7828 18.4761 36.4089 18.1023 36.4089 17.3548C36.5335 16.6073 36.9073 16.2335 37.6548 16.2335C38.4023 16.3581 38.6515 16.8565 38.7761 17.4794Z" fill="white"/>
</svg>
