<svg xmlns="http://www.w3.org/2000/svg" fill="none" viewBox="0 0 12 14" height="14" width="12">
<path fill="#0DE18C" d="M5.99998 0C3.17775 0 0.881714 2.33729 0.881714 5.21023C0.881714 6.81722 1.69448 8.76774 3.29751 11.0076C4.47062 12.6468 5.6266 13.8158 5.67525 13.8648C5.76466 13.9549 5.88229 14 6.00006 14C6.11442 14 6.22885 13.9574 6.31755 13.8719C6.36631 13.825 7.52522 12.7033 8.70054 11.0867C10.3049 8.88004 11.1183 6.90292 11.1183 5.2102C11.1183 2.33729 8.82216 0 5.99998 0ZM5.99998 7.45955C4.62021 7.45955 3.49772 6.33704 3.49772 4.95729C3.49772 3.57755 4.62024 2.45504 5.99998 2.45504C7.37972 2.45504 8.50224 3.57755 8.50224 4.95729C8.50224 6.33704 7.3797 7.45955 5.99998 7.45955Z"></path>
</svg>
