<svg xmlns="http://www.w3.org/2000/svg" fill="none" viewBox="0 0 40 40" height="40" width="40">
<circle fill="#0077B5" r="20" cy="20" cx="20"></circle>
<path fill="white" d="M14.7747 10.2839C14.7747 11.529 13.8267 12.5366 12.3442 12.5366C10.9194 12.5366 9.97132 11.529 10.0007 10.2839C9.97132 8.97828 10.9193 8 12.3726 8C13.8267 8 14.7463 8.97828 14.7747 10.2839ZM10.1199 28.819V14.3162H14.6271V28.8181H10.1199V28.819Z" clip-rule="evenodd" fill-rule="evenodd"></path>
<path fill="white" d="M18.2403 18.9444C18.2403 17.1354 18.1807 15.5933 18.1211 14.3179H22.0361L22.2442 16.3047H22.3331C22.9263 15.3851 24.4089 13.9924 26.8111 13.9924C29.7762 13.9924 32.0005 15.9499 32.0005 20.2188V28.8207H27.4932V20.7836C27.4932 18.9141 26.8413 17.6397 25.2102 17.6397C23.9642 17.6397 23.2234 18.4997 22.9273 19.3294C22.8081 19.6265 22.7494 20.0409 22.7494 20.4572V28.8207H18.2421V18.9444H18.2403Z" clip-rule="evenodd" fill-rule="evenodd"></path>
</svg>
