<svg width="550" height="625" viewBox="0 0 550 625" fill="none" xmlns="http://www.w3.org/2000/svg">
<path d="M206.061 235.074C192.926 237.809 167.826 248.754 157.958 255.244C153.736 258.019 152.564 263.692 155.341 267.914C157.097 270.587 160.016 272.038 162.992 272.038C164.717 272.038 166.461 271.551 168.009 270.532C176.143 265.186 199.124 255.209 209.789 252.989C214.736 251.96 217.91 247.115 216.881 242.167C215.851 237.22 211 234.052 206.061 235.074Z" fill="white"/>
<path d="M206.061 235.074C192.926 237.809 167.826 248.754 157.958 255.244C153.736 258.019 152.564 263.692 155.341 267.914C157.097 270.587 160.016 272.038 162.992 272.038C164.717 272.038 166.461 271.551 168.009 270.532C176.143 265.186 199.124 255.209 209.789 252.989C214.736 251.96 217.91 247.115 216.881 242.167C215.851 237.22 211 234.052 206.061 235.074Z" />
<path d="M514.087 304.012C523.097 286.716 528.285 267.231 529.446 245.855C530.711 222.571 527.201 199.657 519.262 177.891C546.575 141.516 556.048 95.5184 545.226 50.8152C541.809 36.6997 530.356 25.9777 516.046 23.4978C472.498 15.9534 428.601 27.317 394.669 54.7003C365.891 42.6218 334.323 35.3714 301.45 33.5856C268.572 31.7998 236.405 35.586 206.492 44.4771C175.722 13.5784 133.303 -2.46556 89.2093 0.308259C74.7156 1.22189 62.1676 10.6399 57.2396 24.3029C41.6384 67.5691 46.0711 114.322 69.2826 153.443C59.0327 174.221 53.0593 196.619 51.7932 219.902C49.9891 253.097 58.1325 282.639 75.9976 307.705C78.9276 311.82 84.6423 312.779 88.7567 309.845C92.8711 306.913 93.8299 301.201 90.8975 297.085C75.5 275.479 68.491 249.844 70.0645 220.893C75.4877 121.077 178.862 45.2444 300.457 51.8533C332.765 53.6086 363.682 60.981 391.589 73.2863C392.155 73.6132 392.749 73.8743 393.362 74.0707C411.037 82.0335 427.477 91.9883 442.261 103.773C442.42 103.906 442.58 104.037 442.746 104.158C446.662 107.298 450.463 110.565 454.137 113.959C474.975 133.209 490.454 155.286 500.031 178.918C500.194 179.499 500.415 180.066 500.695 180.609C508.751 201.155 512.375 222.846 511.178 244.862C509.9 268.376 503.315 288.93 491.528 306.408C491.297 306.707 491.079 307.014 490.887 307.34C479.481 323.887 463.36 337.643 442.566 348.484C436.408 351.694 429.874 354.625 422.993 357.274C422.963 357.285 422.932 357.291 422.902 357.302C422.846 357.322 422.793 357.35 422.737 357.372C385.276 371.734 337.476 377.727 282.912 374.763C221.318 371.417 170.007 357.819 133.122 335.229C132.889 335.066 132.647 334.91 132.395 334.767C132.377 334.757 132.358 334.75 132.339 334.739C127.494 331.738 122.89 328.588 118.56 325.276C114.547 322.206 108.805 322.973 105.735 326.986C102.666 330.999 103.431 336.741 107.445 339.81C110.313 342.002 113.293 344.124 116.361 346.191C114.197 352.598 113.432 359.43 114.163 365.921C112.526 367.528 111.013 369.286 109.66 371.198C103.427 380.001 98.692 388.892 95.4729 397.778C54.9915 439.899 21.175 487.114 2.54751 527.578C-3.41364 540.531 1.39724 555.612 13.7379 562.656C16.5788 564.277 19.7137 565.851 23.0633 567.357C24.2501 568.863 25.5895 570.265 27.0984 571.521C32.0215 575.62 38.2559 577.877 44.6549 577.877C47.0055 577.877 49.3133 577.569 51.537 576.997C67.4603 581.041 86.1756 584.052 107.335 585.971C107.374 591.891 108.772 597.886 111.702 603.482C118.36 616.203 131.42 624.104 145.786 624.104C151.947 624.104 158.103 622.587 163.588 619.716C182.658 609.734 197.912 598.69 210.715 587.195C223.953 586.468 237.11 585.43 249.494 584.126C249.014 593.427 251.877 602.925 258.279 610.642C265.608 619.472 276.397 624.537 287.88 624.537C296.167 624.537 304.064 621.933 310.72 617.006C314.78 614 315.634 608.27 312.627 604.21C309.621 600.148 303.89 599.295 299.832 602.301C296.352 604.878 292.219 606.239 287.88 606.239C281.857 606.239 276.201 603.585 272.361 598.957C265.268 590.409 266.451 577.683 274.999 570.588C281.392 565.285 286.464 559.111 290.178 552.212C306.741 549.675 322.441 544.435 336.679 536.944C335.286 547.716 331.934 560.27 324.777 573.01C322.303 577.414 323.867 582.992 328.271 585.466C329.689 586.263 331.227 586.641 332.744 586.641C335.944 586.641 339.049 584.96 340.729 581.971C352.682 560.696 355.679 539.899 355.82 524.862C382.802 504.648 401.88 475.212 407.231 440.761C447.053 425.103 497.906 393.844 526.975 371.29C543.721 358.296 546.774 334.1 533.782 317.352C528.705 310.818 521.765 306.236 514.087 304.012ZM130.068 82.2384C109.532 97.4395 92.6906 115.196 79.9351 134.773C62.4274 99.3741 65.2293 65.8517 70.2231 44.8114C89.2507 50.1029 113.075 60.1467 134.299 79.1853C132.877 80.1879 131.464 81.204 130.068 82.2384ZM150.159 68.9353C125.807 45.7079 98.0186 33.6563 75.9269 27.4097C78.9471 22.3195 84.3081 18.9504 90.3607 18.5686C126.107 16.3169 160.548 28.0892 186.892 51.158C174.088 56.1055 161.801 62.0459 150.159 68.9353ZM448.018 85.1196C437.192 77.0104 425.62 69.7733 413.428 63.467C442.121 43.3879 477.647 35.4165 512.921 41.5289C518.898 42.5633 523.862 46.4947 526.312 51.8825C503.673 55.6981 474.743 64.6672 448.018 85.1196ZM510.694 158.179C500.136 137.335 485.318 117.859 466.55 100.522C465.273 99.3424 463.98 98.1787 462.676 97.0273C485.837 80.4014 510.609 72.9985 530.098 69.7989C532.781 91.2576 531.934 124.887 510.694 158.179ZM109.24 417.691C110.828 406.002 115.992 393.916 124.594 381.77C127.702 377.378 132.335 374.461 137.638 373.554C138.784 373.358 139.933 373.262 141.074 373.262C145.208 373.262 149.232 374.534 152.675 376.972C157.068 380.081 159.984 384.715 160.891 390.019C161.797 395.324 160.583 400.663 157.474 405.056C150.732 414.578 147.802 423.166 149.44 428.616C149.698 429.476 150.081 430.292 150.577 431.04C153.61 435.616 161.414 438.349 169.161 437.529C174.513 436.959 179.766 438.506 183.952 441.887C188.137 445.267 190.754 450.077 191.323 455.431C191.893 460.782 190.345 466.033 186.964 470.22C183.584 474.406 178.774 477.025 173.423 477.593C171.026 477.848 168.601 477.978 166.214 477.978C144.733 477.978 125.307 467.606 115.517 450.909C109.785 441.135 107.615 429.648 109.24 417.691ZM34.8319 520.361C31.1103 524.161 27.3533 528.297 23.561 532.854C21.3946 535.456 19.7832 538.386 18.7123 541.494C18.1329 539.477 18.2378 537.254 19.1685 535.23C34.1512 502.683 59.584 465.393 90.5718 430.139C91.2768 440.82 94.3653 451.009 99.7337 460.166C103.394 466.409 108.031 471.987 113.422 476.786C91.1658 482.64 64.3791 490.384 35.2698 519.913C35.1185 520.054 34.9746 520.206 34.8319 520.361ZM51.7041 556.279C50.7673 557.405 49.589 558.262 48.2789 558.826C48.0484 558.905 47.8227 558.999 47.5995 559.096C46.6627 559.414 45.6698 559.581 44.6525 559.581C43.146 559.581 40.9089 559.212 38.8023 557.46C37.9887 556.783 37.3203 555.981 36.7945 555.099C36.7811 555.077 36.7689 555.054 36.7543 555.032C36.0871 553.89 35.6638 552.611 35.5394 551.254C35.3162 548.817 36.0553 546.44 37.6216 544.559C39.5818 542.203 41.5237 539.973 43.4485 537.852C48.4705 540.943 53.2923 545.232 57.1469 550.03C55.3526 552 53.5399 554.073 51.7041 556.279ZM56.7553 524.696C79.6595 504.554 100.234 499.153 120.273 493.903C125.149 492.626 129.809 491.394 134.471 489.96C138.178 491.514 142.033 492.8 146.004 493.796C148.256 496.883 150.63 499.869 153.116 502.752C143.423 506.771 134.056 509.231 124.916 511.626C106.848 516.36 89.541 520.907 70.3304 537.216C66.3454 532.47 61.7236 528.21 56.7553 524.696ZM111.647 567.979C96.5866 566.693 82.8395 564.856 70.5488 562.484C91.622 539.274 108.533 534.832 129.553 529.325C140.858 526.363 153.479 523.055 166.873 516.648C167.928 517.576 168.999 518.487 170.081 519.385C160.571 529.658 147.445 541.383 127.934 551.594C120.676 555.393 115.147 561.202 111.647 567.979ZM155.1 603.504C152.181 605.032 149.046 605.807 145.783 605.807C138.249 605.807 131.4 601.665 127.91 594.999C122.759 585.156 126.574 572.958 136.417 567.807C159.322 555.819 174.283 542.033 184.962 530.225C196.697 537.694 209.561 543.549 223.177 547.579C206.87 567.29 186.537 587.051 155.1 603.504ZM263.312 556.508C260.292 559.014 257.757 561.889 255.712 565.013C247.568 565.977 238.986 566.824 230.178 567.538C234.754 562.383 239.013 557.208 243.06 552.063C244.618 552.308 246.18 552.536 247.751 552.735C253.936 553.516 260.072 553.904 266.143 553.944C265.239 554.821 264.306 555.684 263.312 556.508ZM389.587 434.86C381.555 498.541 318.956 543.268 250.042 534.582C227.373 531.722 206.253 523.334 188.563 510.566C188.554 510.56 188.546 510.552 188.537 510.546C183.723 507.068 179.162 503.266 174.895 499.161C174.801 499.067 174.705 498.976 174.607 498.886C173.652 497.961 172.708 497.027 171.783 496.072C172.978 495.995 174.172 495.913 175.36 495.788C185.571 494.701 194.749 489.705 201.201 481.716C207.653 473.728 210.608 463.705 209.52 453.495C208.434 443.283 203.44 434.105 195.454 427.654C188.219 421.808 179.336 418.833 170.118 419.132C170.739 418.089 171.493 416.921 172.409 415.626C175.356 411.463 177.409 406.855 178.518 402.029C208.044 404.841 240.149 408.641 265.612 414.469C256.74 423.572 250.84 435.375 249.031 448.105C248.959 448.48 248.91 448.863 248.886 449.252C248.597 451.616 248.439 454.008 248.439 456.421C248.439 466.282 250.846 475.585 255.079 483.801C255.254 484.212 255.454 484.608 255.685 484.984C258.533 490.223 262.146 494.986 266.363 499.14C263.757 499.267 261.147 499.049 258.703 498.438C252.904 496.988 248.688 493.632 246.173 488.462C243.96 483.92 238.486 482.026 233.943 484.24C229.399 486.451 227.51 491.926 229.72 496.47C234.575 506.443 243.292 513.446 254.266 516.189C257.682 517.043 261.252 517.456 264.847 517.456C272.374 517.456 279.973 515.612 286.424 512.211C293.242 514.909 300.661 516.41 308.428 516.41C341.505 516.41 368.416 489.499 368.416 456.421C368.416 454.448 368.292 452.493 368.101 450.553C368.09 450.161 368.055 449.77 367.993 449.379C366.681 438.246 362.3 427.788 355.418 419.123C367.361 416.964 379.889 415.979 390.26 415.271C390.621 421.803 390.407 428.361 389.587 434.86ZM344.752 435.996C346.535 439.166 347.915 442.561 348.82 446.109C322.389 460.55 288.954 468.268 269.189 470.509C267.814 466.689 266.981 462.615 266.785 458.375C286.069 456.268 317.719 448.866 344.752 435.996ZM270.387 439.454C273.881 431.663 279.727 424.996 287.207 420.549C293.218 422.668 298.422 424.987 302.541 427.543C304.59 428.812 306.793 429.738 309.073 430.338C294.624 434.926 280.788 437.913 270.387 439.454ZM348.85 466.622C344.288 484.696 327.898 498.115 308.426 498.115C297.724 498.115 287.955 494.058 280.564 487.407C299.935 484.305 325.774 477.632 348.85 466.622ZM392.869 396.761C376.545 397.847 353.799 399.379 334.503 405.392C334.143 405.486 333.788 405.595 333.441 405.731C328.113 407.45 323.049 409.499 318.498 412.012C316.419 413.161 314.057 413.154 312.183 411.991C286.346 395.969 233.088 388.77 178.202 383.622C177.303 380.188 175.948 376.933 174.18 373.926C205.364 384.36 241.622 390.842 281.915 393.032C291.283 393.542 300.46 393.794 309.449 393.794C350.849 393.793 388.046 388.403 419.466 377.931C419.827 382.45 419.135 386.615 417.385 389.59C415.471 392.844 412.267 394.777 407.59 395.501C404.407 395.994 399.06 396.35 392.869 396.761ZM515.754 356.836C489.386 377.295 444.59 404.84 408.727 420.343C408.711 418.174 408.63 416.007 408.502 413.842C409.16 413.76 409.795 413.676 410.387 413.584C423.219 411.601 429.852 404.487 433.158 398.87C437.609 391.305 438.915 381.426 437.021 371.315C441.858 369.25 446.531 367.052 451.023 364.71C473.075 353.213 490.692 338.425 503.629 320.787C509.719 320.859 515.52 323.669 519.322 328.569C526.13 337.346 524.529 350.026 515.754 356.836Z" fill="white"/>
<path d="M413.844 206.979C418.668 206.979 422.706 203.202 422.97 198.327L423.768 183.64C424.043 178.595 420.175 174.283 415.13 174.009C410.114 173.731 405.771 177.601 405.498 182.647L404.7 197.334C404.426 202.379 408.294 206.691 413.339 206.964C413.508 206.974 413.677 206.979 413.844 206.979Z" fill="white"/>
<path d="M413.844 206.979C418.668 206.979 422.706 203.202 422.97 198.327L423.768 183.64C424.043 178.595 420.175 174.283 415.13 174.009C410.114 173.731 405.771 177.601 405.498 182.647L404.7 197.334C404.426 202.379 408.294 206.691 413.339 206.964C413.508 206.974 413.677 206.979 413.844 206.979Z" />
<path d="M447.414 235.043C458.27 234.206 483.124 237.382 492.427 240.251C493.324 240.529 494.232 240.661 495.126 240.661C499.034 240.661 502.653 238.137 503.866 234.207C505.355 229.379 502.649 224.258 497.821 222.769C486.535 219.288 459.381 215.765 446.005 216.8C440.967 217.19 437.198 221.588 437.588 226.626C437.976 231.662 442.364 235.434 447.414 235.043Z" fill="white"/>
<path d="M447.414 235.043C458.27 234.206 483.124 237.382 492.427 240.251C493.324 240.529 494.232 240.661 495.126 240.661C499.034 240.661 502.653 238.137 503.866 234.207C505.355 229.379 502.649 224.258 497.821 222.769C486.535 219.288 459.381 215.765 446.005 216.8C440.967 217.19 437.198 221.588 437.588 226.626C437.976 231.662 442.364 235.434 447.414 235.043Z"/>
<path d="M427.878 253.631C426.32 258.437 428.951 263.597 433.756 265.157C444.118 268.52 465.884 280.928 473.389 287.124C475.094 288.532 477.158 289.217 479.209 289.217C481.844 289.217 484.46 288.084 486.268 285.893C489.486 281.997 488.933 276.231 485.038 273.014C475.93 265.494 452.165 251.894 439.403 247.752C434.6 246.194 429.439 248.825 427.878 253.631Z" fill="white"/>
<path d="M427.878 253.631C426.32 258.437 428.951 263.597 433.756 265.157C444.118 268.52 465.884 280.928 473.389 287.124C475.094 288.532 477.158 289.217 479.209 289.217C481.844 289.217 484.46 288.084 486.268 285.893C489.486 281.997 488.933 276.231 485.038 273.014C475.93 265.494 452.165 251.894 439.403 247.752C434.6 246.194 429.439 248.825 427.878 253.631Z" />
<path d="M202.854 203.588C189.668 201.111 162.292 201.668 150.696 203.906C145.735 204.863 142.488 209.662 143.446 214.623C144.29 218.998 148.123 222.039 152.419 222.039C152.994 222.039 153.577 221.985 154.162 221.872C163.722 220.028 188.769 219.561 199.475 221.571C204.435 222.503 209.223 219.235 210.156 214.268C211.089 209.302 207.819 204.521 202.854 203.588Z" fill="white"/>
<path d="M202.854 203.588C189.668 201.111 162.292 201.668 150.696 203.906C145.735 204.863 142.488 209.662 143.446 214.623C144.29 218.998 148.123 222.039 152.419 222.039C152.994 222.039 153.577 221.985 154.162 221.872C163.722 220.028 188.769 219.561 199.475 221.571C204.435 222.503 209.223 219.235 210.156 214.268C211.089 209.302 207.819 204.521 202.854 203.588Z" />
<path d="M236.896 197.363C241.721 197.363 245.758 193.586 246.023 188.711L246.821 174.025C247.095 168.979 243.227 164.667 238.182 164.394C233.152 164.119 228.825 167.987 228.55 173.033L227.753 187.719C227.478 192.764 231.346 197.076 236.391 197.351C236.56 197.359 236.728 197.363 236.896 197.363Z" fill="white"/>
<path d="M236.896 197.363C241.721 197.363 245.758 193.586 246.023 188.711L246.821 174.025C247.095 168.979 243.227 164.667 238.182 164.394C233.152 164.119 228.825 167.987 228.55 173.033L227.753 187.719C227.478 192.764 231.346 197.076 236.391 197.351C236.56 197.359 236.728 197.363 236.896 197.363Z" />
<path d="M324.254 213.435C324.981 213.475 325.705 213.495 326.429 213.495C337.235 213.495 347.626 209.124 355.214 201.317C358.736 197.695 358.651 191.902 355.03 188.382C351.403 184.859 345.613 184.944 342.091 188.566C337.683 193.102 331.534 195.504 325.246 195.166C318.948 194.823 313.105 191.766 309.213 186.779C306.105 182.794 300.355 182.085 296.373 185.193C292.389 188.301 291.68 194.05 294.788 198.034C301.933 207.192 312.672 212.806 324.254 213.435Z" fill="white"/>
<path d="M324.254 213.435C324.981 213.475 325.705 213.495 326.429 213.495C337.235 213.495 347.626 209.124 355.214 201.317C358.736 197.695 358.651 191.902 355.03 188.382C351.403 184.859 345.613 184.944 342.091 188.566C337.683 193.102 331.534 195.504 325.246 195.166C318.948 194.823 313.105 191.766 309.213 186.779C306.105 182.794 300.355 182.085 296.373 185.193C292.389 188.301 291.68 194.05 294.788 198.034C301.933 207.192 312.672 212.806 324.254 213.435Z" />
</svg>
