<svg width="20" height="20" viewBox="0 0 20 20" fill="none" xmlns="http://www.w3.org/2000/svg">
<path d="M12.5 10.8333C12.0392 10.8333 11.6667 11.2067 11.6667 11.6666V15C11.6667 15.4591 11.2933 15.8333 10.8333 15.8333H8.33328V3.33328C8.33328 2.62161 7.87994 1.98578 7.19833 1.74911L6.9516 1.66656H10.8333C11.2933 1.66656 11.6667 2.04071 11.6667 2.5V5C11.6667 5.4599 12.0392 5.83328 12.5 5.83328C12.9608 5.83328 13.3333 5.4599 13.3333 5V2.5C13.3333 1.12167 12.2116 0 10.8333 0H1.875C1.84326 0 1.81671 0.0141907 1.78589 0.0183105C1.74576 0.0149536 1.70746 0 1.66672 0C0.747528 0 0 0.747375 0 1.66656V16.6666C0 17.3782 0.453339 18.0141 1.13495 18.2507L6.15005 19.9225C6.32004 19.975 6.48911 20 6.66672 20C7.58591 20 8.33328 19.2525 8.33328 18.3333V17.5H10.8333C12.2116 17.5 13.3333 16.3783 13.3333 15V11.6666C13.3333 11.2067 12.9608 10.8333 12.5 10.8333Z" fill="white"/>
<path d="M19.7559 7.74418L16.4224 4.4109C16.1842 4.17255 15.8258 4.10084 15.5142 4.22993C15.2034 4.35917 15 4.66328 15 5.00004V7.50004H11.6667C11.2067 7.50004 10.8333 7.87327 10.8333 8.33332C10.8333 8.79337 11.2067 9.1666 11.6667 9.1666H15V11.6666C15 12.0034 15.2034 12.3075 15.5142 12.4367C15.8258 12.5658 16.1842 12.4941 16.4224 12.2559L19.7559 8.92246C20.0816 8.59669 20.0816 8.06995 19.7559 7.74418Z" fill="white"/>
</svg>
