<svg width="14" height="12" viewBox="0 0 14 12" fill="none" xmlns="http://www.w3.org/2000/svg">
    <path d="M1.34372 3.89073C1.52082 4.01571 2.05466 4.38687 2.94527 5.00403C3.8359 5.62119 4.51819 6.09639 4.99216 6.42965C5.04423 6.46618 5.15486 6.54559 5.32411 6.66799C5.49338 6.79047 5.63403 6.88944 5.74595 6.96494C5.85795 7.04041 5.99334 7.12507 6.15227 7.21879C6.31114 7.31243 6.46091 7.38287 6.60153 7.42949C6.74218 7.47651 6.87238 7.49979 6.99215 7.49979H7H7.00788C7.12765 7.49979 7.2579 7.47648 7.39855 7.42949C7.53912 7.38287 7.68902 7.31235 7.84776 7.21879C8.00658 7.12496 8.14197 7.04038 8.25397 6.96494C8.36597 6.88944 8.50651 6.79047 8.67584 6.66799C8.84505 6.54548 8.95582 6.46618 9.0079 6.42965C9.48698 6.09639 10.7058 5.25 12.6641 3.89057C13.0443 3.62506 13.3619 3.30469 13.6171 2.92967C13.8725 2.55481 14 2.16157 14 1.75015C14 1.40635 13.8762 1.11206 13.6288 0.867289C13.3814 0.622465 13.0884 0.500122 12.75 0.500122H1.24995C0.848933 0.500122 0.540324 0.635518 0.324178 0.906309C0.108059 1.17716 0 1.5157 0 1.92191C0 2.25003 0.143277 2.6056 0.429693 2.98839C0.716082 3.37121 1.02086 3.67202 1.34372 3.89073Z" fill="#0DE18C"/>
    <path d="M13.2186 4.72654C11.5105 5.88268 10.2135 6.7812 9.32816 7.42189C9.03129 7.64055 8.79046 7.81125 8.60551 7.93356C8.42056 8.05596 8.17459 8.18096 7.86724 8.3085C7.56 8.43624 7.27366 8.49991 7.00799 8.49991H7.00002H6.99217C6.72655 8.49991 6.44005 8.43624 6.13281 8.3085C5.82557 8.18096 5.57944 8.05596 5.39454 7.93356C5.2097 7.81125 4.96879 7.64055 4.67195 7.42189C3.96878 6.9063 2.67453 6.00773 0.789143 4.72654C0.492191 4.52875 0.229171 4.30204 0 4.04688V10.2498C0 10.5938 0.122343 10.8879 0.367166 11.1327C0.611935 11.3776 0.906259 11.5 1.25003 11.5H12.7501C13.0938 11.5 13.3881 11.3776 13.6329 11.1327C13.8777 10.8878 14 10.5938 14 10.2498V4.04688C13.776 4.29676 13.5157 4.52347 13.2186 4.72654Z" fill="#0DE18C"/>
</svg>
