<svg xmlns="http://www.w3.org/2000/svg" fill="none" viewBox="0 0 41 41" height="41" width="41">
<path fill="#0DE18C" d="M22.1101 17.2501L29.1599 10.2003L25.4184 10.2003C24.7812 10.2003 24.2646 9.68375 24.2646 9.04644C24.2646 8.40919 24.7812 7.89263 25.4184 7.89263L31.9455 7.89263C32.5827 7.89257 33.0993 8.40919 33.0993 9.04644L33.0993 15.5735C33.0993 16.2107 32.5827 16.7273 31.9454 16.7273C31.3083 16.7273 30.7916 16.2107 30.7916 15.5735L30.7916 11.8321L23.7411 18.8826C27.0003 22.9561 26.7439 28.9338 22.9708 32.7069C18.8919 36.7858 12.2795 36.8102 8.23063 32.7613C4.17077 28.7015 4.17186 22.0255 8.23063 17.9668C12.0058 14.1916 18.0092 13.9582 22.1101 17.2501ZM9.86238 31.1296C13.0115 34.2787 18.1599 34.2543 21.3391 31.0752C24.4882 27.9261 24.4882 22.802 21.3391 19.6529C18.16 16.4738 13.0115 16.4494 9.86238 19.5985C6.68323 22.7777 6.68329 27.9505 9.86238 31.1296Z"></path>
</svg>
