<svg width="144" height="125" viewBox="0 0 144 125" fill="none" xmlns="http://www.w3.org/2000/svg">
<g opacity="0.1">
<path d="M33.0365 26.7341V8.99853C33.0365 4.10669 37.0143 0.126953 41.9036 0.126953C46.7022 0.126953 50.6207 3.95388 50.7719 8.71442C59.815 16.3185 76.4977 24.1031 91.8643 24.9728V22.2085C91.8643 17.5527 95.6505 13.7647 100.304 13.7647H113.536C118.19 13.7647 121.975 17.5527 121.975 22.2085V25.2264C133.814 26.616 143.031 36.7128 143.031 48.9294C143.031 61.1463 133.814 71.2431 121.975 72.6326V75.6505C121.975 79.3269 119.614 82.4602 116.33 83.6164V122.206C116.33 123.749 115.079 125 113.536 125H106.916C101.73 125 97.5104 120.775 97.5104 115.582V83.6167C94.226 82.4605 91.8643 79.3272 91.8643 75.6508V72.8866C76.4974 73.7562 59.815 81.5408 50.7719 89.1447C50.6207 93.9052 46.7025 97.7321 41.9036 97.7321C37.0143 97.7321 33.0365 93.7524 33.0365 88.8605V71.125C24.4787 67.1567 18.8541 58.4737 18.8541 48.9297C18.8541 39.3857 24.4787 30.7024 33.0365 26.7341ZM101.775 67.2148H112.065V30.6443H101.775V67.2148ZM116.388 22.2085C116.388 20.6332 115.109 19.3518 113.536 19.3518H100.304C98.7312 19.3518 97.4515 20.6332 97.4515 22.2085V25.0571H116.388V22.2085ZM137.444 48.9294C137.444 38.8468 129.252 30.6443 119.182 30.6443H117.652V67.2148H119.182C129.252 67.2148 137.444 59.012 137.444 48.9294ZM103.098 115.582C103.098 117.694 104.811 119.413 106.916 119.413H110.742V84.0941H103.098V115.582ZM97.4515 75.6508C97.4515 77.2258 98.7312 78.5073 100.304 78.5073H113.536C115.109 78.5073 116.388 77.2258 116.388 75.6508V72.8019H97.4515V75.6508ZM38.6237 88.8605C38.6237 90.6713 40.0951 92.145 41.9036 92.145C43.7167 92.145 45.192 90.6716 45.192 88.8605V61.4818C45.192 59.9392 46.4429 58.6882 47.9855 58.6882C49.5282 58.6882 50.7791 59.9392 50.7791 61.4818V82.0856C61.792 74.218 78.8898 67.2148 94.6579 67.2148H96.1879V30.6443H94.6579C78.8901 30.6443 61.7917 23.6408 50.7791 15.7732V36.377C50.7791 37.9196 49.5282 39.1706 47.9855 39.1706C46.4429 39.1706 45.192 37.9196 45.192 36.377V8.99853C45.192 7.18773 43.717 5.71411 41.9036 5.71411C40.0948 5.71411 38.6237 7.18745 38.6237 8.99853V28.5955V69.2633V88.8605ZM33.0365 64.7559V33.1032C27.7718 36.5354 24.4413 42.4779 24.4413 48.9294C24.4413 55.3809 27.7718 61.3237 33.0365 64.7559Z" fill="#0DE18C"/>
<path d="M2.79339 46.1359H8.56604C10.1087 46.1359 11.3596 47.3868 11.3596 48.9294C11.3596 50.4721 10.1087 51.723 8.56604 51.723H2.79339C1.25077 51.723 -0.000191689 50.4721 -0.000191689 48.9294C-0.000191689 47.3868 1.25077 46.1359 2.79339 46.1359Z" fill="#0DE18C"/>
<path d="M11.4805 34.3687C10.7665 34.3687 10.0524 34.0966 9.50741 33.5525L3.74258 27.7994C2.65057 26.7096 2.64861 24.941 3.73838 23.8487C4.82788 22.7561 6.59705 22.7547 7.68907 23.8445L13.4539 29.5976C14.5459 30.6874 14.5479 32.456 13.4581 33.5483C12.9122 34.0955 12.1962 34.3687 11.4805 34.3687Z" fill="#0DE18C"/>
<path d="M9.50731 64.3066C10.5993 63.2169 12.3679 63.2183 13.458 64.3108C14.5478 65.4028 14.5461 67.1715 13.4538 68.2615L7.68896 74.0146C7.14366 74.5588 6.42989 74.8309 5.71585 74.8309C5.00013 74.8309 4.28414 74.5574 3.73855 74.0104C2.64878 72.9184 2.65046 71.1498 3.74275 70.0597L9.50731 64.3066Z" fill="#0DE18C"/>
<path d="M47.9857 46.1359C49.5283 46.1359 50.7793 47.3868 50.7793 48.9294V48.9454C50.7793 50.488 49.5283 51.7311 47.9857 51.7311C46.4431 51.7311 45.1921 50.4723 45.1921 48.9297C45.1921 47.3871 46.4428 46.1359 47.9857 46.1359Z" fill="#0DE18C"/>
</g>
</svg>
