<svg xmlns="http://www.w3.org/2000/svg" fill="none" viewBox="0 0 24 18" height="18" width="24">
<path stroke-linejoin="round" stroke-linecap="round" stroke-width="2" stroke="#616161" d="M9.22623 1C9.38402 1 9.51194 1.12792 9.51194 1.28571C9.51194 1.4435 9.38402 1.57142 9.22623 1.57142H2.03571C1.87792 1.57142 1.75 1.4435 1.75 1.28571C1.75 1.12792 1.87792 1 2.03571 1H9.22623Z"></path>
<path stroke-linejoin="round" stroke-linecap="round" stroke-width="2" stroke="#616161" d="M21.9643 8.71429C22.1221 8.71429 22.25 8.84222 22.25 9.00003C22.25 9.15785 22.1221 9.28577 21.9643 9.28577H2.03574C1.87793 9.28577 1.75 9.15784 1.75 9.00003C1.75 8.84222 1.87793 8.71429 2.03574 8.71429H21.9643Z"></path>
<path stroke-linejoin="round" stroke-linecap="round" stroke-width="2" stroke="#616161" d="M16.8929 16.7143C16.8929 16.8721 16.765 17 16.6072 17H2.03577C1.87798 17 1.75006 16.8721 1.75006 16.7143C1.75006 16.5565 1.87798 16.4286 2.03577 16.4286H16.6072C16.765 16.4286 16.8929 16.5565 16.8929 16.7143Z"></path>
</svg>
