<svg width="30" height="30" viewBox="0 0 30 30" fill="none" xmlns="http://www.w3.org/2000/svg">
<path d="M24.7514 5H4.19245C3.85498 5 3.53904 5.08297 3.25321 5.21972L14.4232 16.3897L16.9268 13.9837C16.9268 13.9837 16.927 13.9834 16.927 13.9833C16.9271 13.9832 16.9273 13.9832 16.9273 13.9832L25.691 5.21991C25.4051 5.08306 25.089 5 24.7514 5Z" fill="white"/>
<path d="M26.7242 6.25348L18.4771 14.5002L26.7239 22.747C26.8607 22.4612 26.9436 22.1452 26.9436 21.8078V7.19237C26.9436 6.8551 26.8609 6.53921 26.7242 6.25348Z" fill="white"/>
<path d="M2.21972 6.25311C2.08297 6.53894 2 6.85488 2 7.19235V21.8077C2 22.145 2.08287 22.461 2.21952 22.7467L10.4666 14.5L2.21972 6.25311Z" fill="white"/>
<path d="M17.4437 15.5335L14.9397 17.9398C14.797 18.0826 14.61 18.1539 14.4231 18.1539C14.2362 18.1539 14.0491 18.0826 13.9064 17.9398L11.5 15.5334L3.2527 23.7801C3.53858 23.917 3.85471 24 4.19228 24H24.7513C25.0887 24 25.4047 23.9171 25.6905 23.7803L17.4437 15.5335Z" fill="white"/>
</svg>
