<svg width="30" height="30" viewBox="0 0 30 30" fill="none" xmlns="http://www.w3.org/2000/svg">
<g clip-path="url(#clip0)">
<path d="M29.2636 10.0537L16.0807 0.326988C15.7811 0.114116 15.3689 0.000854492 15.0007 0.000854492C14.6316 0.000854492 14.2194 0.114175 13.9199 0.326988L0.735945 10.0537C-0.0528454 10.6177 -0.236537 11.7172 0.32655 12.506C0.886004 13.291 1.98587 13.4781 2.77876 12.9154L14.9997 3.9768L27.2208 12.9154C28.022 13.4854 29.1152 13.2859 29.6731 12.506C30.2361 11.7172 30.0524 10.6177 29.2636 10.0537Z" fill="white"/>
<path d="M29.9061 28.7278L29.0272 26.9699C28.8783 26.6722 28.5739 26.4841 28.241 26.4841H24.7277C24.3947 26.4841 24.0904 26.6722 23.9415 26.9699L23.0625 28.7278C22.7704 29.3122 23.1954 29.9998 23.8488 29.9998H29.12C29.7733 29.9999 30.1983 29.3122 29.9061 28.7278Z" fill="white"/>
<path d="M26.2011 14.3471L14.9997 6.15784L3.81979 14.3309C3.79542 14.3481 3.767 14.3533 3.74245 14.3699L5.27895 27.466C5.33134 27.9081 5.7064 28.2419 6.15183 28.2419H10.7048L9.84008 23.9177C9.19507 20.6959 11.7194 17.6363 14.9997 17.6363C18.2855 17.6363 20.8035 20.7012 20.1594 23.9177L19.2948 28.2419H21.3849C21.4207 28.142 21.4415 28.039 21.4898 27.9424L22.3687 26.1836C22.8201 25.2841 23.7231 24.7262 24.7274 24.7262H25.0434L26.2564 14.3749C26.2392 14.3631 26.2182 14.3593 26.2011 14.3471ZM19.1955 14.378C19.5388 14.7213 19.5388 15.2776 19.1955 15.6209C18.8522 15.9642 18.2959 15.9642 17.9526 15.6209L16.4523 14.1206H13.5473L12.0469 15.6209C11.7036 15.9642 11.1474 15.9642 10.8041 15.6209C10.4608 15.2776 10.4608 14.7213 10.8041 14.378L11.9405 13.2416L10.8041 12.1052C10.4608 11.7619 10.4608 11.2056 10.8041 10.8623C11.1474 10.519 11.7036 10.519 12.0469 10.8623L13.5472 12.3626H16.4522L17.9525 10.8623C18.2958 10.519 18.852 10.519 19.1953 10.8623C19.5387 11.2056 19.5387 11.7619 19.1953 12.1052L18.0589 13.2416L19.1955 14.378Z" fill="white"/>
<path d="M14.9997 19.4529C12.6822 19.4529 11.1545 21.5287 11.5636 23.5726L12.4973 28.2419H17.5021L18.4357 23.5726C18.8435 21.536 17.3292 19.4529 14.9997 19.4529Z" fill="white"/>
</g>
<defs>
<clipPath id="clip0">
<rect width="30" height="30" fill="white"/>
</clipPath>
</defs>
</svg>
