<svg width="30" height="30" viewBox="0 0 30 30" fill="none" xmlns="http://www.w3.org/2000/svg">
<path d="M10.242 11.2577C10.242 11.2577 9.3482 11.8576 9.03114 14.772C10.7027 16.9365 12.78 16.5826 13.6946 16.2806C13.7777 16.2525 13.8826 16.117 13.8881 16.0306C14.0096 13.9496 12.2912 11.1753 11.6722 10.2492C11.1743 10.4476 10.6896 10.7687 10.242 11.2577Z" fill="white"/>
<path d="M19.0014 5.8532L19.2993 6.77124C19.4954 7.37751 19.5263 7.8937 19.4145 8.32527C22.8761 9.98151 25.2787 13.5077 25.2787 17.5935C25.2787 23.2618 20.6674 27.8728 14.9995 27.8728C14.9391 27.8728 14.8797 27.8643 14.8199 27.8632L14.8034 27.4799C14.7958 27.3086 14.9199 27.1207 15.0803 27.0609L17.0692 26.3147C17.0692 26.3147 18.0019 26.3668 18.39 25.6667C18.5865 25.3137 18.7691 25.0671 18.903 24.908C19.0128 24.7772 19.0114 24.5907 18.888 24.4712C18.4821 24.078 17.6647 23.2168 17.5875 22.5587C17.4836 21.6777 16.2409 20.9521 14.6342 20.8488C14.6342 20.8488 13.7811 20.1929 13.7237 19.0611C13.7146 18.8895 13.5865 18.7191 13.4199 18.7604C12.9904 18.8657 12.2617 19.4172 12.2255 21.9347C12.2255 21.9347 9.94422 23.0909 9.73161 26.4039C9.55001 26.2952 9.3681 26.1879 9.19389 26.0678C9.27681 25.0609 9.53132 24.2586 9.82945 23.6531C10.4212 22.45 11.252 21.781 11.6757 21.4987C11.767 19.0137 12.5734 18.2877 13.2467 18.1214C13.4535 18.0705 13.6706 18.1147 13.8425 18.2432C14.0383 18.389 14.163 18.629 14.1762 18.8869C14.2108 19.5547 14.6056 20.0235 14.7929 20.2098C15.0963 20.2379 15.3862 20.2863 15.6585 20.3525L15.684 20.1181L15.8921 18.0938C15.9275 17.7523 16.2349 17.4638 16.5746 17.4154C17.8652 17.2275 20.7409 16.4629 20.928 13.3561C20.9487 13.013 20.6599 12.6684 20.3259 12.5871L17.5884 11.9187C17.5884 11.9187 17.5103 11.258 16.7334 10.9863C16.1673 10.7878 14.2169 9.66755 12.2981 10.0627C13.0235 11.167 14.6374 13.8891 14.5099 16.0665C14.4908 16.409 14.2185 16.7626 13.8915 16.8705C13.5773 16.9746 13.0127 17.1202 12.3266 17.1202C11.3327 17.1202 10.0845 16.8147 8.95982 15.6393C8.93774 16.0124 8.92512 16.4167 8.923 16.8535C8.91026 19.1078 6.04695 21.2451 6.04695 21.2451L5.70496 21.9531C5.08117 20.6271 4.72178 19.1536 4.72178 17.5935C4.72178 13.4033 7.2448 9.79656 10.8485 8.19771C10.7737 7.79149 10.8099 7.32043 10.9879 6.77081L11.3228 5.74335C6.2712 7.31381 2.59369 12.0318 2.59369 17.5935C2.59369 24.4341 8.15939 30 15.0002 30C21.8409 30 27.4064 24.4341 27.4064 17.5935C27.4058 12.1527 23.8842 7.52217 19.0014 5.8532ZM16.4075 22.7129C16.6006 22.7129 16.7574 22.8689 16.7574 23.0628C16.7574 23.2564 16.6006 23.4125 16.4075 23.4125C16.2144 23.4125 16.0578 23.2565 16.0578 23.0628C16.0578 22.8689 16.2144 22.7129 16.4075 22.7129ZM16.0578 12.6095C16.2514 12.6095 16.4075 12.7657 16.4075 12.9592C16.4075 13.1527 16.2515 13.3087 16.0578 13.3087C15.864 13.3087 15.7077 13.1528 15.7077 12.9592C15.708 12.7657 15.8648 12.6095 16.0578 12.6095Z" fill="white"/>
<ellipse cx="15" cy="17.3" rx="11" ry="11.1" stroke="white" stroke-width="2"/>
</svg>
