<svg width="34" height="29" viewBox="0 0 34 29" fill="none" xmlns="http://www.w3.org/2000/svg">
<path d="M32.694 4.61848C32.3875 4.20992 32.1832 3.90349 32.0811 3.49493C31.6725 1.24786 30.3448 0.226473 28.0977 0.0221941C25.5442 -0.182085 23.6035 1.04361 22.1735 2.88212C19.3136 6.66129 15.8409 9.72547 12.3682 12.9939C10.2232 14.9346 8.48686 17.2838 6.23979 19.0202C3.89058 20.8587 3.27773 23.9229 0.928516 25.6592C0.519958 25.9657 -0.297147 26.3742 0.111412 27.0892C0.417831 27.8042 1.1328 28.0084 1.94991 28.1106C3.58415 28.2127 4.912 27.3956 6.13767 26.4763C6.95479 25.8635 7.77186 25.5571 8.89539 25.5571C11.2446 25.5571 13.3896 24.9443 15.4324 23.8207C17.0666 22.7993 17.6794 23.0036 19.0072 24.74C18.3944 24.8421 17.7816 24.9443 17.1687 25.0464C16.658 25.1485 16.0452 25.0464 16.0452 25.7614C16.0452 26.4764 16.7602 26.3742 17.2709 26.2721C19.0072 25.9657 20.7436 25.9657 22.48 26.2721C22.6843 26.2721 22.7864 26.2721 22.9907 26.2721C23.2971 26.2721 23.7056 26.1699 23.7056 25.7614C23.7056 25.3528 23.3992 25.1485 23.0928 25.1485C22.3778 25.0464 21.5607 24.9443 20.7436 24.8421C21.2543 23.4122 22.48 22.6972 23.5014 21.8801C26.872 19.0202 29.3233 15.6496 28.9148 10.9511C28.9148 10.7469 28.9148 10.5426 29.0169 10.3383C29.3233 8.80621 29.9362 8.4998 31.264 9.0105C31.6725 9.21478 31.979 9.01048 32.2854 8.70406C33.5111 7.37625 33.7154 5.94629 32.694 4.61848ZM6.13767 20.9608C8.99758 18.1009 11.8575 15.241 14.7174 12.3811C16.0452 11.0533 17.373 9.82759 19.1094 9.11261C20.5393 8.60191 21.8671 8.70407 22.8885 9.8276C24.0121 11.0533 24.0121 12.3811 23.1949 13.811C22.5821 14.8324 21.765 15.6496 20.9479 16.3645C18.088 18.8159 14.8195 20.5523 11.3468 21.7779C10.7339 21.9822 10.1211 22.3908 9.30398 22.0844C10.019 21.3694 10.7339 20.8587 11.3468 20.1437C11.6532 19.8373 12.266 19.633 11.6532 19.0202C11.1425 18.4073 10.836 18.918 10.4275 19.2245C9.40609 20.1437 8.38474 21.1651 7.15907 21.7779C6.54623 22.0844 5.93339 22.4929 5.11628 22.1865C5.21842 21.5737 5.72911 21.3694 6.13767 20.9608ZM30.0383 4.41422C29.7319 4.72063 29.2212 5.02705 29.2212 5.33347C29.2212 7.68268 27.3827 9.41904 27.587 11.8704C27.8934 14.526 26.4634 16.7731 24.6249 18.7138C23.2971 20.0416 21.8672 21.2672 20.4372 22.595C19.9265 23.1057 19.5179 23.0036 19.0072 22.595C17.5773 21.4715 16.1473 21.4715 14.6152 22.595C12.8789 23.8207 10.8361 24.1271 8.79328 24.2293C7.46546 24.2293 6.3419 24.6378 5.32051 25.4549C4.40125 26.1699 3.37987 26.8849 1.94991 26.6806C3.68629 24.1271 5.8312 22.7993 8.89539 23.5143C9.40609 23.6164 10.019 23.5143 10.5297 23.4122C15.3302 21.9822 19.6201 19.633 23.0928 16.0581C24.3185 14.8324 25.2377 13.3004 24.9313 11.4618C24.6249 9.21477 22.8886 7.88694 19.9265 7.58052C21.5608 5.33345 22.9907 3.39279 25.1356 1.96284C26.7698 0.941444 28.7105 0.941444 29.9362 1.96284C31.0597 2.77996 31.0597 3.49496 30.0383 4.41422ZM31.5704 6.76341C31.1618 6.55913 30.4469 6.35486 30.4469 5.74202C30.4469 5.53774 30.9576 5.23132 31.1619 5.23132C31.7747 5.23132 31.8768 5.74201 31.979 6.15057C31.979 6.55913 31.8768 6.96769 31.5704 6.76341Z" fill="white"/>
</svg>
