<svg width="37" height="37" viewBox="0 0 37 37" fill="none" xmlns="http://www.w3.org/2000/svg">
<path d="M19.2546 31.9747C19.4098 30.9248 19.8888 29.9527 20.6456 29.2087C20.657 29.1975 20.6684 29.1863 20.6797 29.1749C23.4573 26.3973 22.7898 21.2263 19.1887 17.6252C15.5876 14.0241 10.4167 13.3566 7.63902 16.1343C7.62664 16.1467 7.61434 16.1591 7.60203 16.1716C6.85924 16.9285 5.88738 17.4067 4.8384 17.5623C3.65831 17.7375 2.52273 18.2842 1.62059 19.2027C-0.534304 21.3967 -0.54114 24.9527 1.60582 27.1545C2.12324 27.6852 2.71824 28.0928 3.35487 28.3775C5.62139 29.3912 7.42519 31.195 8.43882 33.4615C8.72354 34.0981 9.13116 34.693 9.66184 35.2105C11.864 37.3579 15.4209 37.3506 17.6148 35.1947C18.5336 34.292 19.0801 33.1555 19.2546 31.9747V31.9747Z" fill="white"/>
<path d="M24.6595 9.36842C26.5765 7.45146 26.8982 4.66516 25.3781 3.14505C23.858 1.62495 21.0717 1.94666 19.1547 3.86363C17.2378 5.78059 16.9161 8.56689 18.4362 10.087C19.9563 11.6071 22.7426 11.2854 24.6595 9.36842Z" fill="white"/>
<path d="M10.0322 9.92134C11.9492 8.00437 12.2709 5.21808 10.7508 3.69797C9.23069 2.17786 6.44439 2.49958 4.52743 4.41654C2.61046 6.33351 2.28875 9.1198 3.80886 10.6399C5.32896 12.16 8.11526 11.8383 10.0322 9.92134Z" fill="white"/>
<path d="M33.3171 18.0278C35.234 16.1109 35.5558 13.3246 34.0357 11.8045C32.5155 10.2844 29.7292 10.6061 27.8123 12.523C25.8953 14.44 25.5736 17.2263 27.0937 18.7464C28.6138 20.2665 31.4001 19.9448 33.3171 18.0278Z" fill="white"/>
<path d="M32.5831 32.4769C34.5 30.56 34.8217 27.7737 33.3016 26.2536C31.7815 24.7335 28.9952 25.0552 27.0783 26.9721C25.1613 28.8891 24.8396 31.6754 26.3597 33.1955C27.8798 34.7156 30.6661 34.3939 32.5831 32.4769Z" fill="white"/>
</svg>
