<svg xmlns="http://www.w3.org/2000/svg" fill="none" viewBox="0 0 20 20" height="20" width="20">
<g clip-path="url(#clip0)">
<path fill="white" d="M13.3743 10.5997C12.4744 9.19574 10.9416 8.35742 9.27415 8.35742C7.60667 8.35742 6.07393 9.19574 5.17412 10.5997L3.00554 13.9827C2.64574 14.5439 2.47972 15.1924 2.52534 15.8576C2.57097 16.5229 2.82411 17.1424 3.25731 17.6496C3.69081 18.1563 4.26362 18.5027 4.9138 18.6513C5.56398 18.7999 6.23048 18.7365 6.84114 18.468L6.88203 18.4499C8.41859 17.788 10.1744 17.7941 11.707 18.468C12.1024 18.6418 12.5212 18.7297 12.9439 18.7297C13.1737 18.7297 13.4049 18.7036 13.6339 18.6515C14.2841 18.503 14.8569 18.1566 15.2905 17.6497C15.7239 17.143 15.9772 16.5233 16.023 15.8579C16.0687 15.1924 15.9027 14.5441 15.5429 13.9826L13.3743 10.5997Z"></path>
<path fill="white" d="M3.58965 10.5952C4.23479 10.3474 4.7249 9.82753 4.96965 9.13127C5.20265 8.46874 5.18358 7.72075 4.91579 7.02495C4.64784 6.32961 4.16048 5.76198 3.54341 5.42644C2.89522 5.07412 2.18309 5.01674 1.53902 5.265C0.243241 5.7632 -0.351394 7.36446 0.213639 8.83525C0.664994 10.0059 1.7177 10.7449 2.782 10.7449C3.05376 10.7449 3.32628 10.6967 3.58965 10.5952Z"></path>
<path fill="white" d="M7.79739 7.94479C9.41727 7.94479 10.7352 6.44333 10.7352 4.59778C10.7352 2.75177 9.41727 1.25 7.79739 1.25C6.17767 1.25 4.85992 2.75177 4.85992 4.59778C4.85992 6.44333 6.17767 7.94479 7.79739 7.94479Z"></path>
<path fill="white" d="M12.8709 8.767H12.8711C13.1202 8.84971 13.3745 8.88923 13.6276 8.88923C14.8089 8.88923 15.9602 8.02939 16.3995 6.70798C16.6525 5.94733 16.6359 5.14304 16.3527 4.44343C16.0563 3.711 15.5072 3.17939 14.8062 2.94639C14.105 2.71338 13.3468 2.81058 12.671 3.21982C12.0254 3.61075 11.5307 4.24506 11.278 5.00571C10.7448 6.61033 11.4593 8.29764 12.8709 8.767Z"></path>
<path fill="white" d="M19.0576 8.37656L19.0571 8.3761C17.94 7.55091 16.2693 7.90857 15.3326 9.17383C14.3968 10.4397 14.5431 12.1415 15.6585 12.9673C16.0653 13.2687 16.546 13.4127 17.0379 13.4127C17.8953 13.4127 18.7874 12.9751 19.3837 12.1704C20.3193 10.9045 20.1732 9.20267 19.0576 8.37656Z"></path>
</g>
<defs>
<clipPath id="clip0">
<rect fill="white" height="20" width="20"></rect>
</clipPath>
</defs>
</svg>
