<svg xmlns="http://www.w3.org/2000/svg" fill="none" viewBox="0 0 14 14" height="14" width="14">
<g clip-path="url(#clip0)">
<path fill="#0DE18C" d="M13.6189 10.2746L11.6652 8.32085C10.9674 7.62308 9.7812 7.90222 9.50209 8.80928C9.29276 9.4373 8.595 9.78618 7.96701 9.6466C6.57148 9.29772 4.68752 7.48353 4.33863 6.01822C4.1293 5.39021 4.54796 4.69244 5.17595 4.48314C6.08305 4.20403 6.36215 3.01783 5.66439 2.32007L3.71064 0.366327C3.15243 -0.122109 2.31511 -0.122109 1.82668 0.366327L0.500926 1.69208C-0.824828 3.08761 0.640479 6.78576 3.91997 10.0653C7.19947 13.3448 10.8976 14.8799 12.2932 13.4843L13.6189 12.1586C14.1074 11.6003 14.1074 10.763 13.6189 10.2746Z"></path>
</g>
<defs>
<clipPath id="clip0">
<rect fill="white" height="14" width="14"></rect>
</clipPath>
</defs>
</svg>
