<svg width="33" height="37" viewBox="0 0 33 37" fill="none" xmlns="http://www.w3.org/2000/svg">
<path d="M29.2969 22.7656V19.0769C30.3171 18.9474 31.2538 18.4466 31.9283 17.6702C32.6027 16.8938 32.9675 15.8962 32.9531 14.8679C32.9384 14.1805 32.7567 13.5069 32.4238 12.9053C32.0908 12.3037 31.6165 11.7921 31.0418 11.4147L28.2571 9.55888C28.2171 9.53222 28.1767 9.50647 28.1361 9.48118L28.3661 8.56118C28.9367 6.27816 28.7438 3.87107 27.8169 1.70807C27.6273 1.2661 27.3122 0.889439 26.9107 0.624756C26.5092 0.360073 26.0389 0.218994 25.5579 0.218994C25.077 0.218994 24.6067 0.360073 24.2052 0.624756C23.8036 0.889439 23.4886 1.2661 23.299 1.70807C23.2211 1.88951 23.1483 2.0736 23.0807 2.26032C22.7255 1.78339 22.3311 1.33695 21.9017 0.925634C21.5965 0.630767 21.2213 0.418367 20.8114 0.308409C20.4015 0.198451 19.9704 0.194546 19.5586 0.297064C19.0314 0.434587 18.5648 0.743138 18.2319 1.17435C17.8989 1.60557 17.7184 2.13507 17.7188 2.67987C17.7188 5.02735 18.4901 7.30978 19.914 9.17612L21.4183 11.1474C20.9893 11.8823 20.764 12.7184 20.7656 13.5694V15.6859L16.3004 17.9184L11.3387 18.9113C9.57755 19.2636 7.95234 20.1078 6.6515 21.3461C5.35066 22.5844 4.42748 24.1661 3.989 25.9077C3.69477 25.8445 3.39469 25.8126 3.09375 25.8125H0.65625C0.494634 25.8125 0.339637 25.8767 0.225357 25.991C0.111077 26.1053 0.046875 26.2603 0.046875 26.4219V28.8594C0.0481451 29.9903 0.497966 31.0746 1.29765 31.8742C2.09734 32.6739 3.18158 33.1237 4.3125 33.125H4.97687C5.09524 33.3459 5.22062 33.5659 5.35423 33.7816L6.82503 36.4648C6.87755 36.5606 6.95486 36.6406 7.04887 36.6962C7.14288 36.7519 7.25012 36.7813 7.35938 36.7813H18.3281C18.4897 36.7813 18.6447 36.7171 18.759 36.6028C18.8733 36.4885 18.9375 36.3335 18.9375 36.1719V34.9531C18.9368 34.4394 18.7741 33.939 18.4725 33.5231C18.1709 33.1072 17.7458 32.7971 17.2577 32.6368L17.564 31.8202L18.7346 31.5606L18.9493 32.6352C18.9649 32.7133 18.9958 32.7876 19.04 32.8538L21.4775 36.5101C21.5332 36.5935 21.6086 36.6619 21.697 36.7092C21.7854 36.7565 21.8841 36.7813 21.9844 36.7813H29.2969C29.4585 36.7813 29.6135 36.7171 29.7278 36.6028C29.842 36.4885 29.9062 36.3335 29.9062 36.1719V35.5625C29.9055 34.9163 29.6485 34.2967 29.1915 33.8397C28.7346 33.3828 28.115 33.1257 27.4688 33.125H27.236L26.8594 32.3717V28.5327C27.6299 27.7826 28.2424 26.886 28.6611 25.8955C29.0797 24.9051 29.2959 23.8409 29.2969 22.7656ZM24.4193 2.18811C24.515 1.96541 24.6739 1.77566 24.8763 1.64235C25.0788 1.50904 25.3159 1.43802 25.5583 1.43808C25.8006 1.43815 26.0377 1.50929 26.2401 1.64271C26.4424 1.77613 26.6012 1.96596 26.6968 2.18872C27.5186 4.10677 27.6895 6.24115 27.1836 8.26556L27.0081 8.96771C26.5472 8.82449 26.0676 8.75111 25.585 8.75001C25.5156 8.75001 25.4459 8.75159 25.3759 8.75473L25.0842 6.96995C24.8927 5.79234 24.5057 4.655 23.9394 3.6049C24.062 3.1208 24.2225 2.64708 24.4193 2.18811ZM1.26562 28.8594V27.0313H3.09375C3.32146 27.0313 3.54844 27.0569 3.77046 27.1074C3.58733 28.7357 3.8087 30.384 4.41495 31.9063H4.3125C3.5047 31.9054 2.73024 31.5841 2.15904 31.0129C1.58783 30.4417 1.26653 29.6672 1.26562 28.8594ZM20.1208 32.2778L19.9247 31.2969L21.6519 30.9139L21.9962 32.6354C22.0118 32.7134 22.0426 32.7877 22.0868 32.8539L23.8926 35.5625H22.3105L20.1208 32.2778ZM27.4688 34.3438C27.7919 34.3442 28.1016 34.4727 28.3301 34.7012C28.5586 34.9296 28.6871 35.2394 28.6875 35.5625H25.3573L23.1676 32.2779L21.9726 26.3024L20.7774 26.5414L21.4129 29.7183L16.9774 30.702C16.8783 30.724 16.7864 30.7703 16.7098 30.8368C16.6332 30.9033 16.5744 30.9879 16.5388 31.0828L16.0015 32.5156H14.6774C14.8483 31.181 14.5634 29.8278 13.8689 28.6754C13.1744 27.523 12.1111 26.6389 10.8512 26.1665L10.0108 25.8514L9.58291 26.9924L10.4233 27.3076C11.4371 27.6878 12.2907 28.4027 12.8428 29.3341C13.3949 30.2655 13.6124 31.3576 13.4593 32.4294C13.4552 32.458 13.4531 32.4868 13.4531 32.5156V33.125C13.4531 33.2866 13.5173 33.4416 13.6316 33.5559C13.7459 33.6702 13.9009 33.7344 14.0625 33.7344H16.5C16.8231 33.7348 17.1329 33.8633 17.3614 34.0918C17.5898 34.3203 17.7184 34.63 17.7188 34.9531V35.5625H7.72028L6.41523 33.1817C6.41005 33.1722 6.40456 33.1629 6.39885 33.1537C6.21459 32.8566 6.04472 32.5508 5.89406 32.2459C5.02273 30.4809 4.72977 28.5929 5.04672 26.7864C5.33663 25.145 6.11509 23.6292 7.28031 22.4374C8.44552 21.2455 9.94327 20.433 11.5777 20.1061L16.6195 19.0976C16.6726 19.087 16.7241 19.0693 16.7725 19.045L21.6475 16.6075C21.7488 16.5569 21.8339 16.4791 21.8934 16.3829C21.9529 16.2866 21.9844 16.1757 21.9844 16.0625V13.5694C21.983 12.8172 22.2187 12.0838 22.6579 11.4732C22.7339 11.3671 22.7739 11.2395 22.7719 11.109C22.77 10.9786 22.7262 10.8522 22.6471 10.7485L20.8828 8.43656C19.6209 6.78244 18.9375 4.75958 18.9375 2.67911C18.9375 2.40403 19.0288 2.13674 19.197 1.91912C19.3653 1.70151 19.601 1.54589 19.8673 1.47666C20.0776 1.42611 20.2974 1.4299 20.5059 1.48767C20.7144 1.54543 20.9048 1.65527 21.0591 1.80687C21.7277 2.4463 22.2995 3.17981 22.7564 3.98424C22.7583 3.9879 22.7603 3.9914 22.7623 3.99498C23.3209 4.97731 23.6999 6.05139 23.8814 7.16678L24.2661 9.52049C24.2791 9.59996 24.3077 9.67606 24.3502 9.74441C24.3928 9.81275 24.4485 9.87199 24.5141 9.91869C24.5797 9.96538 24.6539 9.99862 24.7324 10.0165C24.8109 10.0343 24.8922 10.0364 24.9715 10.0227C25.7105 9.89336 26.4714 9.99966 27.1466 10.3265C27.1536 10.3303 27.1608 10.3342 27.168 10.3374C27.3112 10.4064 27.4495 10.4853 27.5817 10.5735L30.3655 12.4287C30.7757 12.6965 31.1146 13.06 31.353 13.4878C31.5915 13.9157 31.7224 14.3951 31.7344 14.8848C31.74 15.2775 31.6676 15.6674 31.5212 16.0319C31.3748 16.3963 31.1575 16.728 30.8818 17.0077C30.606 17.2874 30.2775 17.5095 29.9152 17.6611C29.5529 17.8126 29.164 17.8907 28.7713 17.8906H28.6875C28.5259 17.8906 28.3709 17.9548 28.2566 18.0691C28.1423 18.1834 28.0781 18.3384 28.0781 18.5V22.7656C28.0768 24.156 27.6517 25.5129 26.8594 26.6554V25.8125H25.6406V32.5156C25.6406 32.6103 25.6627 32.7036 25.705 32.7882L26.3144 34.0069C26.365 34.1081 26.4428 34.1933 26.539 34.2528C26.6353 34.3122 26.7462 34.3438 26.8594 34.3438H27.4688Z" fill="white"/>
<path d="M26.8594 14.8438C27.5325 14.8438 28.0781 14.2981 28.0781 13.625C28.0781 12.9519 27.5325 12.4062 26.8594 12.4062C26.1863 12.4062 25.6406 12.9519 25.6406 13.625C25.6406 14.2981 26.1863 14.8438 26.8594 14.8438Z" fill="white"/>
</svg>
