<svg width="30" height="30" viewBox="0 0 30 30" fill="none" xmlns="http://www.w3.org/2000/svg">
<path d="M15.8667 13.3686V7.19995H14.1333V13.3686C14.1333 13.7907 13.7907 14.1333 13.3686 14.1333H7.2V15.8666H13.3686C13.7907 15.8666 14.1333 16.2092 14.1333 16.6313V22.8H15.8667V16.6313C15.8667 16.2092 16.2093 15.8666 16.6314 15.8666H22.8V14.1333H16.6314C16.2093 14.1333 15.8667 13.7907 15.8667 13.3686Z" fill="white"/>
<path d="M25.7059 2H4.29412C3.02929 2 2 3.02929 2 4.29412V25.7059C2 26.9707 3.02929 28 4.29412 28H25.7059C26.9707 28 28 26.9707 28 25.7059V4.29412C28 3.02929 26.9707 2 25.7059 2ZM24.3294 16.6314C24.3294 17.0535 23.9868 17.3961 23.5647 17.3961H17.3961V23.5647C17.3961 23.9868 17.0535 24.3294 16.6314 24.3294H13.3686C12.9465 24.3294 12.6039 23.9868 12.6039 23.5647V17.3961H6.43529C6.01318 17.3961 5.67059 17.0535 5.67059 16.6314V13.3686C5.67059 12.9465 6.01318 12.6039 6.43529 12.6039H12.6039V6.43529C12.6039 6.01318 12.9465 5.67059 13.3686 5.67059H16.6314C17.0535 5.67059 17.3961 6.01318 17.3961 6.43529V12.6039H23.5647C23.9868 12.6039 24.3294 12.9465 24.3294 13.3686V16.6314Z" fill="white"/>
</svg>
