<svg width="135" height="134" viewBox="0 0 135 134" fill="none" xmlns="http://www.w3.org/2000/svg">
<g opacity="0.1">
<path d="M106.097 116.621C112.454 116.621 117.627 111.448 117.627 105.091C117.627 98.733 112.454 93.5605 106.097 93.5605C99.7388 93.5605 94.5664 98.733 94.5664 105.091C94.5664 111.448 99.7388 116.621 106.097 116.621ZM106.097 101.247C108.216 101.247 109.94 102.971 109.94 105.091C109.94 107.21 108.216 108.934 106.097 108.934C103.977 108.934 102.253 107.21 102.253 105.091C102.253 102.971 103.977 101.247 106.097 101.247Z" fill="#0DE18C"/>
<path d="M28.7166 93.5605C22.3589 93.5605 17.1865 98.733 17.1865 105.091C17.1865 111.448 22.3589 116.621 28.7166 116.621C35.0743 116.621 40.2468 111.448 40.2468 105.091C40.2468 98.733 35.0743 93.5605 28.7166 93.5605ZM28.7166 108.934C26.5974 108.934 24.8733 107.21 24.8733 105.091C24.8733 102.971 26.5974 101.247 28.7166 101.247C30.8359 101.247 32.56 102.971 32.56 105.091C32.56 107.21 30.8359 108.934 28.7166 108.934Z" fill="#0DE18C"/>
<path d="M133 47.1839V24.1237H108.714C110.634 17.086 107.953 9.38282 101.576 5.13179L98.3808 3.00154L67.3837 49.4241L63.5632 43.6931V24.1237H50.517L36.4343 3L33.2367 5.13179C26.8605 9.38256 24.1791 17.086 26.0995 24.1237H1.81299V47.1839H39.3179L53.4033 70.3613L44.6812 83.4238C40.0922 80.0212 34.5647 78.1871 28.7166 78.1871C12.116 78.1871 -0.758997 93.1407 2.25293 110.016C4.37882 121.928 14.9801 131.993 28.7148 131.993C38.0703 131.993 46.7466 127.232 51.7202 119.049L67.3794 93.329L83.0916 119.046C88.067 127.233 96.7425 131.993 106.099 131.993C119.716 131.993 130.414 122.04 132.56 110.016C135.571 93.1458 122.702 78.1871 106.096 78.1871C100.245 78.1871 94.714 80.0235 90.1232 83.4303L81.3572 70.3707L95.4744 47.1839H133ZM125.313 39.4972H100.155L104.835 31.8104H125.313V39.4972ZM34.7392 14.3149L41.2783 24.1237H34.3218C32.6268 20.9398 32.8692 17.1926 34.7392 14.3149ZM9.49973 31.8104H55.8764V39.4972H9.49973V31.8104ZM48.3129 47.1839H56.652L62.7609 56.3473L58.1125 63.3089L48.3129 47.1839ZM45.1529 115.054C40.9439 121.98 33.0102 125.471 24.9396 123.95C17.3894 122.527 11.1721 116.242 9.82001 108.666C7.61238 96.2968 17.0822 85.8741 28.7166 85.8741C39.3814 85.8741 44.0135 93.7961 45.9641 95.3452L100.072 14.3116C102.041 17.3383 102.213 21.3293 100.218 24.6115L45.1529 115.054ZM88.8572 95.3363C90.8027 93.7917 95.4086 85.8739 106.096 85.8739C117.723 85.8739 127.202 96.2884 124.993 108.666C123.641 116.242 117.424 122.527 109.874 123.95C101.804 125.472 93.8692 121.98 89.6556 115.046L71.8754 85.9446L76.954 77.6029L88.8572 95.3363Z" fill="#0DE18C" stroke="white" stroke-width="3"/>
</g>
</svg>
