<svg width="30" height="30" viewBox="0 0 30 30" fill="none" xmlns="http://www.w3.org/2000/svg">
<path d="M29.1011 18.2875L26.3436 16.1313C26.3786 15.7987 26.4086 15.41 26.4086 14.9988C26.4086 14.5875 26.3798 14.1988 26.3436 13.8663L29.1036 11.7088C29.6162 11.3038 29.7561 10.585 29.4299 9.98631L26.5624 5.025C26.2561 4.46502 25.5848 4.1775 24.9036 4.42875L21.6499 5.73498C21.0261 5.28498 20.3723 4.905 19.6961 4.60125L19.2011 1.15002C19.1198 0.495 18.5498 0 17.8761 0H12.1262C11.4524 0 10.8837 0.495 10.8036 1.14L10.3074 4.60377C9.65238 4.89879 9.00867 5.27379 8.3574 5.7375L5.0949 4.42752C4.4836 4.19127 3.75234 4.45623 3.44859 5.01375L0.577384 9.98127C0.238653 10.5538 0.378634 11.2975 0.902403 11.7125L3.65988 13.8688C3.61611 14.29 3.5949 14.6563 3.5949 15.0001C3.5949 15.3438 3.61617 15.71 3.65988 16.1326L0.899884 18.29C0.387364 18.6963 0.248614 19.415 0.574864 20.0125L3.44238 24.9738C3.74865 25.5325 4.41363 25.8225 5.10111 25.57L8.35488 24.2638C8.97738 24.7126 9.63111 25.0925 10.3074 25.3975L10.8024 28.8475C10.8836 29.505 11.4524 30 12.1274 30H17.8774C18.5511 30 19.1211 29.505 19.2011 28.86L19.6973 25.3975C20.3524 25.1013 20.9948 24.7275 21.6473 24.2625L24.9098 25.5725C25.0673 25.6337 25.2311 25.665 25.3999 25.665C25.8848 25.665 26.3311 25.4 26.5561 24.9875L29.4361 20C29.7561 19.415 29.6161 18.6963 29.1011 18.2875ZM15.0011 20C12.2436 20 10.0011 17.7575 10.0011 15C10.0011 12.2425 12.2436 10 15.0011 10C17.7586 10 20.0011 12.2425 20.0011 15C20.0011 17.7575 17.7586 20 15.0011 20Z" fill="white"/>
</svg>
