<svg width="30" height="30" viewBox="0 0 30 30" fill="none" xmlns="http://www.w3.org/2000/svg">
<path d="M13.0724 20.6337C13.5006 20.9813 13.9563 21.3512 14.4353 21.7511C14.5983 21.8868 14.7984 21.9545 14.9984 21.9545C15.1982 21.9545 15.3983 21.8868 15.5612 21.7511C16.0394 21.3519 16.4953 20.982 16.9235 20.6344C19.3783 18.6424 21.1523 17.2023 21.1523 15.0366C21.1523 12.9998 19.6074 11.4052 17.6358 11.4052C16.382 11.4052 15.5399 12.0213 14.9982 12.6789C14.4576 12.0213 13.6164 11.4052 12.3615 11.4052C10.3901 11.4052 8.84491 12.9998 8.84491 15.0366C8.84514 17.2023 10.6183 18.6415 13.0724 20.6337Z" fill="white"/>
<path d="M21.1523 7.52357V3.07617C21.1523 2.35542 20.5547 1.75781 19.834 1.75781C19.1132 1.75781 18.5156 2.35542 18.5156 3.07617V9.73526C18.8473 9.79042 19.1645 9.8774 19.471 9.99092C19.6454 8.93394 20.2691 8.03238 21.1523 7.52357Z" fill="white"/>
<path d="M16.7578 9.76295V1.31836C16.7578 0.59761 16.1602 0 15.4395 0C14.7187 0 14.1211 0.59761 14.1211 1.31836V9.99069C14.4212 10.1006 14.7244 10.2026 14.9991 10.3702C15.5331 10.0445 16.133 9.86847 16.7578 9.76295Z" fill="white"/>
<path d="M22.9102 8.78906C21.9434 8.78906 21.1523 9.58008 21.1523 10.5469V11.0159C22.2288 11.9959 22.9102 13.4141 22.9102 15.0366C22.9102 18.04 20.6493 19.875 18.0315 21.9992C17.8578 22.1404 17.661 22.3034 17.4783 22.4524C17.3774 22.6051 17.2405 22.7264 17.0654 22.7909C16.9363 22.8971 16.8201 22.9898 16.6873 23.1004C16.2126 23.4961 15.6136 23.7124 14.9982 23.7124C14.3829 23.7124 13.7837 23.4961 13.3118 23.1029C12.8362 22.7055 12.3864 22.3416 11.9641 21.9983C9.34708 19.8731 7.08733 18.0389 7.08733 15.0366C7.08733 13.9091 7.41096 12.8739 7.96875 12.0177V6.5918C7.96875 5.87105 7.37114 5.27344 6.65039 5.27344C5.92964 5.27344 5.33203 5.87105 5.33203 6.5918V19.3359H5.3849C5.61333 21.9198 6.82617 24.2578 8.84766 25.9101V29.1211C8.84766 29.6132 9.23424 30 9.72656 30H20.2734C20.7658 30 21.1523 29.6132 21.1523 29.1211V25.9101C23.3849 24.0644 24.668 21.375 24.668 18.457V10.5469C24.668 9.58008 23.877 8.78906 22.9102 8.78906Z" fill="white"/>
<path d="M12.3633 9.6476V3.07617C12.3633 2.35542 11.7657 1.75781 11.0449 1.75781C10.3242 1.75781 9.72656 2.35542 9.72656 3.07617V10.3732C10.5004 9.92294 11.3901 9.64737 12.3617 9.64737C12.3621 9.64737 12.3626 9.6476 12.3633 9.6476Z" fill="white"/>
</svg>
