<svg xmlns="http://www.w3.org/2000/svg" fill="none" viewBox="0 0 20 20" height="20" width="20">
<g clip-path="url(#clip0)">
<path fill="white" d="M11.8323 10.0164L19.6199 2.22852C20.1267 1.72196 20.1267 0.90291 19.6199 0.396343C19.1133 -0.110223 18.2943 -0.110223 17.7877 0.396343L9.99989 8.18418L2.21229 0.396343C1.70548 -0.110223 0.88667 -0.110223 0.380103 0.396343C-0.126701 0.90291 -0.126701 1.72196 0.380103 2.22852L8.16771 10.0164L0.380103 17.8042C-0.126701 18.3108 -0.126701 19.1298 0.380103 19.6364C0.632556 19.8891 0.964494 20.016 1.29619 20.016C1.62789 20.016 1.9596 19.8891 2.21229 19.6364L9.99989 11.8485L17.7877 19.6364C18.0404 19.8891 18.3721 20.016 18.7038 20.016C19.0355 20.016 19.3672 19.8891 19.6199 19.6364C20.1267 19.1298 20.1267 18.3108 19.6199 17.8042L11.8323 10.0164Z"></path>
</g>
<defs>
<clipPath id="clip0">
<rect fill="white" height="20" width="20"></rect>
</clipPath>
</defs>
</svg>
